<?xml version="1.0" encoding="utf-8"?>
<!-- Generator: Adobe Illustrator 25.2.3, SVG Export Plug-In . SVG Version: 6.00 Build 0)  -->
<svg version="1.1" id="Capa_1" xmlns="http://www.w3.org/2000/svg" xmlns:xlink="http://www.w3.org/1999/xlink" x="0px" y="0px"
	 viewBox="0 0 594 631" style="enable-background:new 0 0 594 631;" xml:space="preserve">
<style type="text/css">
	.st0{fill:none;stroke:#00953E;stroke-width:10;stroke-linecap:round;stroke-linejoin:round;}
	.st1{fill:none;stroke:#03488E;stroke-width:10;stroke-linecap:round;stroke-linejoin:round;}
	.st2{fill:none;stroke:#983B8E;stroke-width:10;stroke-linecap:round;stroke-linejoin:round;}
	.st3{fill:none;stroke:#DD72AA;stroke-width:10;stroke-linecap:round;stroke-linejoin:round;}
	.st4{fill:none;stroke:#EF8019;stroke-width:10;stroke-linecap:round;stroke-linejoin:round;}
	.st5{fill:none;stroke:#7C858B;stroke-width:10;stroke-linecap:round;stroke-linejoin:round;}
	.st6{fill:none;stroke:#E1251D;stroke-width:10;stroke-linecap:round;stroke-linejoin:round;}
	.st7{fill:none;stroke:#81BA27;stroke-width:10;stroke-linecap:round;stroke-linejoin:round;}
	.st8{fill:none;stroke:#FECC00;stroke-width:10;stroke-linecap:round;stroke-linejoin:round;}
	.st9{fill-rule:evenodd;clip-rule:evenodd;fill:#3FB3E4;}
	.st10{fill:none;stroke:#3FB3E4;stroke-width:10;stroke-linecap:round;stroke-linejoin:round;}
	.st11{fill-rule:evenodd;clip-rule:evenodd;fill:#FEFEFE;}
	.st12{fill:none;stroke:#020203;stroke-width:5;stroke-linecap:round;stroke-linejoin:round;}
	.st13{fill-rule:evenodd;clip-rule:evenodd;fill:#FFFFFF;stroke:#E5E5E5;}
	.st14{fill-rule:evenodd;clip-rule:evenodd;fill:#4A4A4A;}
	.st15{fill-rule:evenodd;clip-rule:evenodd;fill:#261F1F;}
	.st16{fill-rule:evenodd;clip-rule:evenodd;fill:#00AEAB;}
</style>
<desc>Created with Sketch.</desc>
<g id="_x33_.0_x5F_viaja_x5F_en_x5F_metro">
	<g id="_x33_.4_x5F_bibliometros" transform="translate(-502.000000, -1936.000000)">
		<g id="contenido" transform="translate(120.000000, 702.000000)">
			<g id="estaciones" transform="translate(204.000000, 1239.000000)">
				<g id="mapa_bibliometros-copy" transform="translate(178.000000, 0.000000)">
					<g id="mapa_bibliometro" transform="translate(53.000000, 0.000000)">
						<path id="Stroke-1" class="st0" d="M199.6,527l-40,40c-2.5,2.5-6,4-9.5,4H92.2c-3.6,0-7-1.4-9.5-4l-9.2-9.2l-1.4,1.4l9.2,9.2
							c2.9,2.9,6.9,4.6,11,4.6H150c4.1,0,8.1-1.6,11-4.6l40-40L199.6,527z"/>
						<path id="Stroke-3" class="st1" d="M352.6,0l-63.2,63.3c-2.6,2.6-6.2,4.1-9.9,4.1c-4.3,0-8.4,1.7-11.4,4.7l-31,31.2
							c-3,3-4.7,7.1-4.7,11.3l0,0h1h-1v22.8c0,2.5,1,5,2.8,6.8l2.8,2.8c1.4,1.4,2.2,3.3,2.2,5.3v208.5c0,1.3-0.5,2.4-1.4,3.3
							c-0.8,0.8-2,1.4-3.3,1.4h-54.3c-2.5,0-5,1-6.8,2.8L69.9,472.9c-1.8,1.8-2.8,4.2-2.8,6.8v8.3c0,2-0.8,3.9-2.2,5.3l-51.1,51.2
							c-3,3-4.7,7.1-4.7,11.4V590h2v-34.1c0-3.7,1.5-7.3,4.1-9.9l51.1-51.2c1.8-1.8,2.8-4.2,2.8-6.8v-8.3c0-2,0.8-3.9,2.2-5.3
							l104.6-104.7c1.4-1.4,3.3-2.2,5.3-2.2h54.3c3.7,0,6.7-3,6.7-6.7V152.3c0-2.5-1-5-2.8-6.8l-2.8-2.8c-1.4-1.4-2.2-3.3-2.2-5.3
							v-22.8l0,0h-0.7h0.7l0,0h-0.7h0.7l0,0c0-3.7,1.5-7.3,4.1-9.9l31-31.2c2.6-2.6,6.2-4.1,9.9-4.1c4.3,0,8.3-1.7,11.3-4.7L354,1.4
							L352.6,0z"/>
						<path id="Stroke-5" class="st2" d="M188,127v28.7c0,4.1,1.6,8,4.5,10.9l41.7,41.7c1.8,1.8,4.2,2.8,6.8,2.8h3.2h13.1
							c2,0,4,0.8,5.4,2.3l23.8,24.4c2.4,2.5,3.8,5.9,3.8,9.4V381c0,2.5,1,5,2.8,6.7L488.6,583l1.4-1.4L294.6,386.2
							c-1.4-1.4-2.2-3.3-2.2-5.3V247.1c0-4-1.6-7.9-4.4-10.8l-23.8-24.4c-1.8-1.8-4.3-2.9-6.8-2.9h-13.1H241c-2,0-3.9-0.8-5.3-2.2
							L194,165.2c-2.5-2.5-3.9-5.9-3.9-9.5V127H188z"/>
						<path id="Stroke-7" class="st3" d="M243.5,271l2-2.1l45.5-45.5c2.5-2.5,5.9-3.9,9.5-3.9h133c4.1,0,8-1.6,10.9-4.5l19.1-19.1
							c2.9-2.9,4.5-6.8,4.5-10.9v-25h-2v24.9c0,3.6-1.4,7-3.9,9.5L443,213.5c-2.5,2.5-5.9,3.9-9.5,3.9h-133c-4.1,0-8,1.6-10.9,4.5
							L244,267.5l0,0l-2,2.1L243.5,271z"/>
						<path id="Stroke-9" class="st4" d="M156,129v165.8c0,4.1,1.6,8,4.5,10.9l2.6,2.6c2.9,2.9,6.9,4.5,11,4.5h193
							c3.6,0,7,1.4,9.5,3.9l31.4,31.2l6.5,6.5c2.9,2.9,6.9,4.5,11,4.5h34.6c2,0,3.9,0.8,5.4,2.2l69,68.7l1.4-1.4l-69-68.7
							c-1.8-1.8-4.2-2.8-6.8-2.8h-34.6c-3.6,0-7-1.4-9.5-3.9l-6.5-6.5l-31.4-31.2c-2.9-2.9-6.9-4.5-11-4.5h-193
							c-3.6,0-7-1.4-9.5-3.9l-2.6-2.6c-2.5-2.5-3.9-5.9-3.9-9.5V129H156z"/>
						<path id="Stroke-11" class="st5" d="M137.7,352.3h1v-13.1c0-1-0.4-2-1.1-2.7l-6.1-6c-1-1-1.5-2.3-1.5-3.6V302
							c0-3.6,1.4-7,3.9-9.5l10.4-10.5c2.5-2.5,5.9-3.9,9.5-3.9h93.8c3.6,0,7,1.4,9.5,3.9l75.8,76c2.5,2.5,3.9,5.9,3.9,9.5v75.3
							c0,3.6-1.4,7-3.9,9.5L261.6,524c-2.5,2.5-5.9,3.9-9.5,3.9h-67.2c-3.5,0-6.9-1.4-9.4-3.8l-41.4-40.7c-2.6-2.5-4-6-4-9.6v-29.5
							c0-3.6,1.4-7,3.9-9.5l25.6-25.7c2.9-2.9,4.5-6.8,4.5-11v-8.5c0-4.1-1.6-8.1-4.5-11l-16.9-16.9c-2.5-2.5-3.9-6-3.9-9.5
							L137.7,352.3l-1-0.1c0,4.1,1.6,8.1,4.5,11l16.9,16.9c2.5,2.5,3.9,6,3.9,9.5v8.5c0,3.6-1.4,7-3.9,9.5l-25.6,25.7
							c-2.9,2.9-4.5,6.8-4.5,11v29.5c0,4.2,1.7,8.2,4.6,11.1l41.4,40.7c2.9,2.8,6.8,4.4,10.8,4.4H252c4.1,0,8-1.6,10.9-4.5
							l71.5-71.7c2.9-2.9,4.5-6.8,4.5-11v-75.3c0-4.1-1.6-8.1-4.5-11l-75.8-76c-2.9-2.9-6.8-4.5-10.9-4.5h-93.8
							c-4.1,0-8,1.6-10.9,4.5L132.5,291c-2.9,2.9-4.5,6.8-4.5,11v24.9c0,1.9,0.8,3.7,2.1,5.1l6.1,6c0.3,0.3,0.5,0.8,0.5,1.2v13.1
							L137.7,352.3L137.7,352.3z"/>
						<path id="Stroke-13" class="st6" d="M201,279v133.1c0,3.8,3.1,6.9,7,6.9h54c4.1,0,8.1-1.6,11-4.5l74.9-74.1
							c1.4-1.4,3.3-2.2,5.3-2.2h1c2,0,4,0.8,5.4,2.2l50.6,51c2.9,2.9,6.9,4.6,11.1,4.6H459v-2h-37.8c-3.6,0-7.1-1.4-9.6-4L361,339
							c-1.8-1.8-4.3-2.8-6.8-2.8h-1c-2.5,0-5,1-6.8,2.8l-74.9,74.1c-2.5,2.5-5.9,3.9-9.5,3.9h-54c-1.4,0-2.6-0.5-3.5-1.4
							s-1.4-2.1-1.4-3.4V279H201z"/>
						<path id="Stroke-15" class="st7" d="M461.6,264L396,329.9c-1.4,1.4-3.2,2.1-5.1,2.1h-110c-2.6,0-5,1-6.8,2.9l-78,79.3
							c-1.8,1.8-2.8,4.3-2.8,6.8v9.6c0,2.5,1,5,2.8,6.8l15.5,15.5c0.8,0.8,1.2,1.8,1.2,3c0,1.1-0.4,2.2-1.2,3l-63.8,64
							c-1.4,1.4-3.3,2.2-5.2,2.2h-12.4c-2,0-3.8-0.8-5.2-2.2l-10.7-10.7c-1.4-1.4-2.2-3.3-2.2-5.3v-73.8h-2v73.8c0,2.5,1,5,2.8,6.8
							l10.7,10.7c1.8,1.8,4.2,2.8,6.7,2.8h12.4c2.5,0,4.9-1,6.6-2.8l63.8-64c1.2-1.2,1.8-2.8,1.8-4.4c0-1.7-0.7-3.2-1.8-4.4
							l-15.5-15.5c-1.4-1.4-2.2-3.3-2.2-5.3v-9.6c0-2,0.8-3.9,2.2-5.4l78-79.3c1.4-1.4,3.3-2.2,5.4-2.2h109.9c2.5,0,4.8-1,6.6-2.7
							l65.6-65.9L461.6,264z"/>
						<path id="Stroke-17" class="st8" d="M201.8,621l11.3-11.3c2.4-2.4,3.7-5.6,3.7-8.9v-43.5c0-2.8,1.1-5.5,3.1-7.5l18.3-18.3
							c1.8-1.8,2.8-4.3,2.8-6.8V479c0-3.3-1.3-6.6-3.7-8.9l-11.6-11.6c-1.4-1.4-2.2-3.3-2.2-5.3V422c0-2.5-1-5-2.8-6.8l-87.5-87.5
							c-0.7-0.7-1.1-1.7-1.1-2.7h-2c0,1.6,0.6,3.1,1.7,4.2l87.5,87.5c1.4,1.4,2.2,3.3,2.2,5.3v31.2c0,2.5,1,4.9,2.8,6.7l11.6,11.6
							c2,2,3.1,4.7,3.1,7.5v45.7c0,2-0.8,4-2.2,5.4l-18.3,18.3c-2.4,2.4-3.7,5.6-3.7,8.9v43.5c0,2.8-1.1,5.5-3.1,7.5l-11.3,11.3
							L201.8,621z"/>
						<path id="Fill-19" class="st9" d="M320.9,180H310c-5.2,0-10.3,2.1-14,5.8l0.7,0.7v-1c-0.3,0-0.5,0.1-0.7,0.3
							c-3.3,3.3-7.8,5.2-12.5,5.2h-37c-5.3,0-9.6,4.3-9.6,9.6v6.8c0,1.3-1.1,2.4-2.4,2.4h-5.2c-2.6,0-5,1-6.8,2.8l-22.8,22.7
							c-3.7,3.7-5.8,8.7-5.8,13.9V270c0,5.2,2.1,10.2,5.8,13.9l11.7,11.6c3.3,3.3,5.2,7.8,5.2,12.4v97c0,5.2,2.1,10.2,5.8,13.9
							l96.3,95.8c3.3,3.3,5.2,7.8,5.2,12.4v55.4c0,5.2,2.1,10.2,5.8,13.9l16.9,16.8l1.5-1.4l-16.9-16.8c-3.3-3.3-5.2-7.8-5.2-12.4
							v-55.4c0-5.2-2.1-10.2-5.8-13.9l-96.3-95.8c-3.3-3.3-5.2-7.8-5.2-12.4v-97c0-5.2-2.1-10.2-5.8-13.9l-11.7-11.6
							c-3.3-3.3-5.2-7.8-5.2-12.4v-20.8c0-4.7,1.9-9.1,5.2-12.4L224,214c1.4-1.4,3.4-2.2,5.4-2.2h5.2c2.5,0,4.5-2,4.5-4.5v-6.8
							c0-2.1,0.8-4,2.2-5.3c1.4-1.4,3.3-2.2,5.4-2.2h37c5.2,0,10.3-2.1,14-5.8l-0.7-0.7v1c0.3,0,0.5-0.1,0.7-0.3
							c3.3-3.3,7.8-5.2,12.5-5.2h10.9v-2H320.9z"/>
						<path id="Stroke-21" class="st10" d="M320.9,180H310c-5.2,0-10.3,2.1-14,5.8l0.7,0.7v-1c-0.3,0-0.5,0.1-0.7,0.3
							c-3.3,3.3-7.8,5.2-12.5,5.2h-37c-5.3,0-9.6,4.3-9.6,9.6v6.8c0,1.3-1.1,2.4-2.4,2.4h-5.2c-2.6,0-5,1-6.8,2.8l-22.8,22.7
							c-3.7,3.7-5.8,8.7-5.8,13.9V270c0,5.2,2.1,10.2,5.8,13.9l11.7,11.6c3.3,3.3,5.2,7.8,5.2,12.4v97c0,5.2,2.1,10.2,5.8,13.9
							l96.3,95.8c3.3,3.3,5.2,7.8,5.2,12.4v55.4c0,5.2,2.1,10.2,5.8,13.9l16.9,16.8l1.5-1.4l-16.9-16.8c-3.3-3.3-5.2-7.8-5.2-12.4
							v-55.4c0-5.2-2.1-10.2-5.8-13.9l-96.3-95.8c-3.3-3.3-5.2-7.8-5.2-12.4v-97c0-5.2-2.1-10.2-5.8-13.9l-11.7-11.6
							c-3.3-3.3-5.2-7.8-5.2-12.4v-20.8c0-4.7,1.9-9.1,5.2-12.4L224,214c1.4-1.4,3.4-2.2,5.4-2.2h5.2c2.5,0,4.5-2,4.5-4.5v-6.8
							c0-2.1,0.8-4,2.2-5.3c1.4-1.4,3.3-2.2,5.4-2.2h37c5.2,0,10.3-2.1,14-5.8l-0.7-0.7v1c0.3,0,0.5-0.1,0.7-0.3
							c3.3-3.3,7.8-5.2,12.5-5.2h10.9v-2H320.9z"/>
						<path id="Fill-23" class="st11" d="M251,273c0,6.1-4.9,11-11,11s-11-4.9-11-11s4.9-11,11-11S251,266.9,251,273"/>
						<path id="Stroke-25" class="st12" d="M252,276c0,6.1-4.9,10-11,10s-11-4.9-11-11s4.9-11,11-11S252,269.9,252,276z"/>
						<path id="Fill-27" class="st11" d="M252.2,190.5c0,6.1-4.9,11-11,11s-11-4.9-11-11s4.9-11,11-11S252.2,184.4,252.2,190.5"/>
						<path id="Stroke-29" class="st12" d="M251,190c0,6.1-4.9,12-11,12s-11-4.9-11-11s4.9-11,11-11S251,183.9,251,190z"/>
						<path id="Fill-31" class="st11" d="M387,219c0,6.1-4.9,11-11,11s-11-4.9-11-11s4.9-11,11-11S387,212.9,387,219"/>
						<path id="Stroke-33" class="st12" d="M387,219c0,6.1-4.9,11-11,11s-11-4.9-11-11s4.9-11,11-11S387,212.9,387,219z"/>
						<path id="Fill-35" class="st11" d="M124,508c0,6.1-4.9,11-11,11s-11-4.9-11-11c0-6.1,4.9-11,11-11S124,501.9,124,508"/>
						<path id="Stroke-37" class="st12" d="M124,508c0,6.1-4.9,11-11,11s-11-4.9-11-11c0-6.1,4.9-11,11-11S124,501.9,124,508z"/>
						<path id="Fill-39" class="st11" d="M143,324c0,6.1-4.9,11-11,11c-6.1,0-11-4.9-11-11s4.9-11,11-11
							C138.1,313,143,317.9,143,324"/>
						<path id="Stroke-41" class="st12" d="M143,324c0,6.1-4.9,11-11,11c-6.1,0-11-4.9-11-11s4.9-11,11-11
							C138.1,313,143,317.9,143,324z"/>
						<path id="Fill-43" class="st11" d="M22,584c0,6.1-4.9,11-11,11s-11-4.9-11-11s4.9-11,11-11S22,577.9,22,584"/>
						<path id="Stroke-45" class="st12" d="M22,584c0,6.1-4.9,11-11,11s-11-4.9-11-11s4.9-11,11-11S22,577.9,22,584z"/>
						<path id="Fill-47" class="st11" d="M228,452c0,6.1-4.9,11-11,11s-11-4.9-11-11s4.9-11,11-11S228,445.9,228,452"/>
						<path id="Stroke-49" class="st12" d="M228,452c0,6.1-4.9,11-11,11s-11-4.9-11-11s4.9-11,11-11S228,445.9,228,452z"/>
						<path id="Fill-51" class="st11" d="M252,528c0,6.1-4.9,11-11,11s-11-4.9-11-11s4.9-11,11-11S252,521.9,252,528"/>
						<path id="Stroke-53" class="st12" d="M252,528c0,6.1-4.9,11-11,11s-11-4.9-11-11s4.9-11,11-11S252,521.9,252,528z"/>
						<path id="Fill-55" class="st11" d="M139,571c0,6.1-4.9,11-11,11c-6.1,0-11-4.9-11-11s4.9-11,11-11
							C134.1,560,139,564.9,139,571"/>
						<path id="Stroke-57" class="st12" d="M139,571c0,6.1-4.9,11-11,11c-6.1,0-11-4.9-11-11s4.9-11,11-11
							C134.1,560,139,564.9,139,571z"/>
						<path id="Fill-59" class="st11" d="M210,314c0,6.1-4.9,11-11,11s-11-4.9-11-11s4.9-11,11-11S210,307.9,210,314"/>
						<path id="Stroke-61" class="st12" d="M210,314c0,6.1-4.9,11-11,11s-11-4.9-11-11s4.9-11,11-11S210,307.9,210,314z"/>
						<path id="Fill-63" class="st11" d="M432,512c0,6.1-4.9,11-11,11s-11-4.9-11-11c0-6.1,4.9-11,11-11S432,505.9,432,512"/>
						<path id="Stroke-65" class="st12" d="M432,512c0,6.1-4.9,11-11,11s-11-4.9-11-11c0-6.1,4.9-11,11-11S432,505.9,432,512z"/>
						<path id="Fill-67" class="st11" d="M337,553c0,6.1-4.9,11-11,11s-11-4.9-11-11s4.9-11,11-11S337,546.9,337,553"/>
						<path id="Stroke-69" class="st12" d="M337,553c0,6.1-4.9,11-11,11s-11-4.9-11-11s4.9-11,11-11S337,546.9,337,553z"/>
					</g>
					<g id="destacado_estacion" transform="translate(0.000000, 155.000000)">
						<g id="bts_x2F_nombre_x5F_estacion" transform="translate(250.000000, 0.000000)">
							<path id="Rectangle-4" class="st13" d="M3.5,0.5h86c1.7,0,3,1.3,3,3v18c0,1.7-1.3,3-3,3h-86c-1.7,0-3-1.3-3-3v-18
								C0.5,1.8,1.8,0.5,3.5,0.5z"/>
							<path id="Nuevos-Ministerios" class="st14" d="M23.2,13.6c0,0.4-0.1,0.7-0.3,1.1c-0.1,0.3-0.3,0.6-0.6,0.8
								c-0.2,0.2-0.5,0.4-0.9,0.5c-0.4,0.1-0.7,0.2-1.1,0.2c-0.5,0-0.9-0.1-1.2-0.3c-0.4-0.2-0.7-0.4-0.9-0.7
								c-0.2-0.3-0.4-0.7-0.6-1.1c-0.1-0.4-0.2-0.9-0.2-1.4v-1.1c0-0.5,0.1-1,0.2-1.4s0.3-0.8,0.6-1.1s0.6-0.5,0.9-0.7
								c0.4-0.2,0.8-0.3,1.2-0.3c0.4,0,0.8,0.1,1.1,0.2c0.3,0.1,0.6,0.3,0.9,0.5C22.7,9,22.8,9.3,23,9.6s0.2,0.7,0.3,1.1h-1.5
								c0-0.2,0-0.4-0.1-0.6s-0.1-0.3-0.2-0.4c-0.1-0.1-0.2-0.2-0.4-0.3c-0.2-0.1-0.4-0.1-0.6-0.1s-0.4,0.1-0.6,0.2
								c-0.2,0.1-0.3,0.2-0.4,0.4s-0.2,0.4-0.2,0.7s-0.1,0.6-0.1,1v1.1c0,0.8,0.1,1.3,0.3,1.7s0.6,0.6,1,0.6s0.7-0.1,0.9-0.3
								s0.4-0.5,0.4-1L23.2,13.6L23.2,13.6z M26,11c0.2-0.3,0.4-0.5,0.7-0.7s0.6-0.2,0.9-0.2s0.6,0,0.8,0.1c0.3,0.1,0.5,0.2,0.7,0.4
								s0.3,0.4,0.4,0.7s0.2,0.7,0.2,1.1V16h-1.5v-3.5c0-0.2,0-0.4-0.1-0.5c-0.1-0.2-0.1-0.3-0.2-0.4s-0.2-0.2-0.3-0.2
								s-0.3-0.1-0.5-0.1c-0.3,0-0.5,0-0.7,0.1s-0.3,0.2-0.5,0.4V16h-1.5V7.7H26V11z M34.7,16c0-0.1-0.1-0.2-0.1-0.2
								c0-0.1,0-0.2-0.1-0.3c-0.1,0.1-0.2,0.2-0.3,0.3S34,15.9,33.8,16c-0.1,0.1-0.3,0.1-0.4,0.1c-0.2,0-0.3,0.1-0.5,0.1
								c-0.3,0-0.6,0-0.8-0.1s-0.5-0.2-0.6-0.4c-0.2-0.2-0.3-0.3-0.4-0.6c-0.1-0.2-0.2-0.4-0.2-0.7c0-0.6,0.2-1.1,0.7-1.4
								s1.1-0.5,2-0.5h0.8v-0.3c0-0.3-0.1-0.5-0.3-0.7s-0.4-0.2-0.8-0.2c-0.3,0-0.5,0.1-0.7,0.2c-0.1,0.1-0.2,0.3-0.2,0.5H31
								c0-0.2,0.1-0.5,0.2-0.7s0.3-0.4,0.5-0.6c0.2-0.2,0.5-0.3,0.8-0.4c0.3-0.1,0.6-0.1,1-0.1s0.7,0,1,0.1s0.6,0.2,0.8,0.4
								s0.4,0.4,0.5,0.6c0.1,0.3,0.2,0.6,0.2,0.9v2.5c0,0.3,0,0.6,0.1,0.8c0,0.2,0.1,0.4,0.2,0.5l0,0H34.7z M33.3,15
								c0.2,0,0.3,0,0.4-0.1c0.1,0,0.2-0.1,0.3-0.1c0.1-0.1,0.2-0.1,0.3-0.2s0.1-0.1,0.2-0.2v-1h-0.8c-0.2,0-0.4,0-0.6,0.1
								s-0.3,0.1-0.4,0.2c-0.1,0.1-0.2,0.2-0.2,0.3c-0.1,0.1-0.1,0.2-0.1,0.4s0.1,0.4,0.2,0.5C32.8,14.9,33,15,33.3,15z M38.6,10.2
								v0.7c0.1-0.3,0.3-0.4,0.5-0.6c0.2-0.1,0.4-0.2,0.7-0.2c0.5,0,0.8,0.2,0.9,0.6c0.1-0.2,0.3-0.3,0.4-0.5
								c0.2-0.1,0.4-0.2,0.6-0.2c0.2,0,0.3,0,0.5,0.1s0.3,0.2,0.4,0.3c0.1,0.1,0.2,0.3,0.3,0.5s0.1,0.5,0.1,0.8V16h-1.4v-4.2
								c0-0.1,0-0.2,0-0.3s-0.1-0.1-0.1-0.2l-0.1-0.1c-0.1,0-0.1,0-0.2,0c-0.1,0-0.2,0-0.3,0.1c-0.1,0-0.1,0.1-0.2,0.2V16h-1.3v-4.2
								c0-0.1,0-0.2,0-0.3s-0.1-0.1-0.1-0.2s-0.1-0.1-0.1-0.1c-0.1,0-0.1,0-0.2,0c-0.1,0-0.2,0-0.3,0.1s-0.1,0.2-0.2,0.3V16h-1.4
								v-5.8H38.6z M47.9,16c0-0.1-0.1-0.2-0.1-0.2c0-0.1,0-0.2-0.1-0.3c-0.1,0.1-0.2,0.2-0.3,0.3S47.2,15.9,47,16
								c0,0-0.2,0-0.3,0.1c-0.2,0-0.3,0.1-0.5,0.1c-0.3,0-0.6,0-0.8-0.1s-0.5-0.2-0.6-0.4c-0.2-0.2-0.3-0.3-0.4-0.6
								c-0.1-0.2-0.2-0.4-0.2-0.7c0-0.6,0.2-1.1,0.7-1.4c0.5-0.3,1.1-0.5,2-0.5h0.8v-0.3c0-0.3-0.1-0.5-0.3-0.7s-0.4-0.2-0.8-0.2
								c-0.3,0-0.5,0.1-0.7,0.2c-0.1,0.1-0.2,0.3-0.2,0.5h-1.5c0-0.2,0.1-0.5,0.2-0.7c0.1-0.2,0.3-0.4,0.5-0.6
								c0.2-0.2,0.5-0.3,0.8-0.4c0.3-0.1,0.6-0.1,1-0.1s0.7,0,1,0.1s0.6,0.2,0.8,0.4s0.4,0.4,0.5,0.6c0.1,0.3,0.2,0.6,0.2,0.9v2.5
								c0,0.3,0,0.6,0.1,0.8c0,0.2,0.1,0.4,0.2,0.5l0,0H47.9z M46.5,15c0.2,0,0.3,0,0.4-0.1c0.1,0,0.2-0.1,0.3-0.1
								c0.1-0.1,0.2-0.1,0.3-0.2s0.1-0.1,0.2-0.2v-1h-0.8c-0.2,0-0.4,0-0.6,0.1s-0.3,0.1-0.4,0.2c-0.1,0.1-0.2,0.2-0.2,0.3
								c-0.1,0.1-0.1,0.2-0.1,0.4s0.1,0.4,0.2,0.5C46,14.9,46.2,15,46.5,15z M55,10.1c0.2,0,0.4,0,0.6,0s0.3,0.1,0.5,0.1l-0.2,1.5
								c-0.2,0-0.4-0.1-0.6-0.1c-0.2,0-0.4,0-0.6,0c-0.4,0-0.8,0.1-1,0.2c-0.3,0.2-0.4,0.4-0.6,0.7V16h-1.5v-5.8H53l0.1,1
								c0.2-0.3,0.5-0.6,0.8-0.8C54.3,10.2,54.6,10.1,55,10.1z M60.2,8.8v1.4h2.2v1.1h-2.2v2.5c0,0.2,0,0.4,0.1,0.5s0.1,0.3,0.2,0.3
								c0.1,0.1,0.2,0.1,0.3,0.2c0.1,0,0.3,0.1,0.4,0.1c0.1,0,0.2,0,0.4,0c0.1,0,0.2,0,0.3,0s0.2,0,0.3-0.1c0.1,0,0.2,0,0.2-0.1
								l0.1,1c-0.1,0.1-0.2,0.1-0.4,0.2c0,0.1-0.1,0.1-0.3,0.1s-0.3,0.1-0.5,0.1s-0.3,0-0.5,0c-0.3,0-0.6,0-0.9-0.1
								c-0.3-0.1-0.5-0.2-0.7-0.4s-0.3-0.4-0.4-0.7c-0.1-0.3-0.2-0.6-0.2-1v-2.6h-1.3v-1.1h1.3V8.8H60.2z M64.4,10.2h3.2v4.6h1.7V16
								h-4.9v-1.2h1.7v-3.4h-1.7C64.4,11.4,64.4,10.2,64.4,10.2z M67.3,8.1h1.6l-1.5,1.5h-1.2L67.3,8.1z M72,10.2l0.1,0.8
								c0.2-0.3,0.5-0.5,0.8-0.7s0.6-0.2,1-0.2c0.3,0,0.6,0,0.8,0.1s0.5,0.2,0.6,0.4s0.3,0.4,0.4,0.7s0.1,0.7,0.1,1.1V16h-1.5v-3.6
								c0-0.2,0-0.4-0.1-0.6c-0.1-0.1-0.1-0.3-0.2-0.4s-0.2-0.1-0.3-0.2c-0.1,0-0.3-0.1-0.5-0.1c-0.3,0-0.5,0.1-0.6,0.2
								c-0.2,0.1-0.3,0.2-0.4,0.4V16h-1.5v-5.8H72z"/>
						</g>
						<path id="Rectangle-4_1_" class="st13" d="M276.5,147.5h60c1.7,0,3,1.3,3,3v18c0,1.7-1.3,3-3,3h-60c-1.7,0-3-1.3-3-3v-18
							C273.5,148.8,274.8,147.5,276.5,147.5z"/>
						<path id="Nuevos-Ministerios_1_" class="st14" d="M296.4,160.6c0,0.4-0.1,0.7-0.3,1.1s-0.3,0.6-0.6,0.8s-0.5,0.4-0.9,0.5
							c-0.3,0.1-0.7,0.2-1.1,0.2c-0.5,0-0.9-0.1-1.2-0.3s-0.7-0.4-0.9-0.7s-0.4-0.7-0.6-1.1s-0.2-0.9-0.2-1.4v-1.1
							c0-0.5,0.1-1,0.2-1.4s0.3-0.8,0.6-1.1s0.6-0.5,0.9-0.7s0.8-0.3,1.2-0.3c0.4,0,0.8,0.1,1.1,0.2s0.6,0.3,0.9,0.5
							s0.4,0.5,0.6,0.8s0.2,0.7,0.3,1.1h-1.5c0-0.2,0-0.4-0.1-0.6s-0.1-0.3-0.2-0.4s-0.2-0.2-0.4-0.3s-0.4-0.1-0.6-0.1
							s-0.4,0.1-0.6,0.2s-0.3,0.2-0.4,0.4s-0.2,0.4-0.2,0.7s-0.1,0.6-0.1,1v1.1c0,0.8,0.1,1.3,0.3,1.7s0.6,0.6,1,0.6
							s0.7-0.1,0.9-0.3s0.4-0.5,0.4-1L296.4,160.6L296.4,160.6z M301.2,163c0-0.1-0.1-0.2-0.1-0.2s0-0.2-0.1-0.3
							c-0.1,0.1-0.2,0.2-0.3,0.3s-0.2,0.1-0.4,0.2s-0.3,0.1-0.4,0.1s-0.3,0.1-0.5,0.1c-0.3,0-0.6,0-0.8-0.1s-0.5-0.2-0.6-0.4
							s-0.3-0.3-0.4-0.6s-0.2-0.4-0.2-0.7c0-0.6,0.2-1.1,0.7-1.4s1.1-0.5,2-0.5h0.8v-0.3c0-0.3-0.1-0.5-0.3-0.7s-0.4-0.2-0.8-0.2
							c-0.3,0-0.5,0.1-0.7,0.2s-0.2,0.3-0.2,0.5h-1.5c0-0.2,0.1-0.5,0.2-0.7s0.3-0.4,0.5-0.6s0.5-0.3,0.8-0.4s0.6-0.1,1-0.1
							s0.7,0,1,0.1s0.6,0.2,0.8,0.4s0.4,0.4,0.5,0.6s0.2,0.6,0.2,0.9v2.5c0,0.3,0,0.6,0.1,0.8s0.1,0.4,0.2,0.5v0.1h-1.5V163z
							 M299.8,162c0.2,0,0.3,0,0.4-0.1s0.2-0.1,0.3-0.1s0.2-0.1,0.3-0.2s0.1-0.1,0.2-0.2v-1h-0.8c-0.2,0-0.4,0-0.6,0.1
							s-0.3,0.1-0.4,0.2s-0.2,0.2-0.2,0.3s-0.1,0.2-0.1,0.4s0.1,0.4,0.2,0.5S299.5,162,299.8,162z M305.5,157.2l0.1,0.8
							c0.2-0.3,0.5-0.5,0.8-0.7s0.6-0.2,1-0.2c0.3,0,0.6,0,0.8,0.1s0.5,0.2,0.6,0.4s0.3,0.4,0.4,0.7s0.1,0.7,0.1,1.1v3.6h-1.5v-3.6
							c0-0.2,0-0.4-0.1-0.6s-0.1-0.3-0.2-0.4s-0.2-0.1-0.3-0.2s-0.3-0.1-0.5-0.1c-0.3,0-0.5,0.1-0.6,0.2s-0.3,0.2-0.4,0.4v4.1h-1.5
							V157h1.3V157.2z M314.4,163c0-0.1-0.1-0.2-0.1-0.2s0-0.2-0.1-0.3c-0.1,0.1-0.2,0.2-0.3,0.3s-0.2,0.1-0.4,0.2s-0.3,0.1-0.4,0.1
							s-0.3,0.1-0.5,0.1c-0.3,0-0.6,0-0.8-0.1s-0.5-0.2-0.6-0.4s-0.3-0.3-0.4-0.6s-0.2-0.4-0.2-0.7c0-0.6,0.2-1.1,0.7-1.4
							s1.1-0.5,2-0.5h0.8v-0.3c0-0.3-0.1-0.5-0.3-0.7s-0.4-0.2-0.8-0.2c-0.3,0-0.5,0.1-0.7,0.2s-0.2,0.3-0.2,0.5h-1.5
							c0-0.2,0.1-0.5,0.2-0.7s0.3-0.4,0.5-0.6s0.5-0.3,0.8-0.4s0.6-0.1,1-0.1s0.7,0,1,0.1s0.6,0.2,0.8,0.4s0.4,0.4,0.5,0.6
							s0.2,0.6,0.2,0.9v2.5c0,0.3,0,0.6,0.1,0.8s0.1,0.4,0.2,0.5v0.1h-1.5V163z M313,162c0.2,0,0.3,0,0.4-0.1s0.2-0.1,0.3-0.1
							s0.2-0.1,0.3-0.2s0.1-0.1,0.2-0.2v-1h-0.8c-0.2,0-0.4,0-0.6,0.1s-0.3,0.1-0.4,0.2s-0.2,0.2-0.2,0.3s-0.1,0.2-0.1,0.4
							s0.1,0.4,0.2,0.5S312.7,162,313,162z M317.7,154.7h3.2v7h1.7v1.2h-4.9v-1.2h1.7V156h-1.7L317.7,154.7L317.7,154.7z"/>
						<path id="Rectangle-4_2_" class="st13" d="M220.5,252.5h99c1.7,0,3,1.3,3,3v18c0,1.7-1.3,3-3,3h-99c-1.7,0-3-1.3-3-3v-18
							C217.5,253.8,218.8,252.5,220.5,252.5z"/>
						<path id="Nuevos-Ministerios_2_" class="st14" d="M239.6,264.6h-3.2v2.2h3.8v1.2h-5.3v-7.8h5.3v1.2h-3.7v2h3.2v1.2H239.6z
							 M242.3,262.2v0.7c0.1-0.3,0.3-0.4,0.5-0.6c0.2-0.1,0.4-0.2,0.7-0.2c0.5,0,0.8,0.2,0.9,0.6c0.1-0.2,0.3-0.3,0.4-0.5
							s0.4-0.2,0.6-0.2c0.2,0,0.3,0,0.5,0.1s0.3,0.2,0.4,0.3s0.2,0.3,0.3,0.5s0.1,0.5,0.1,0.8v4.1h-1.4v-4.2c0-0.1,0-0.2,0-0.3
							c0-0.1-0.1-0.1-0.1-0.2l-0.1-0.1c-0.1,0-0.1,0-0.2,0c-0.1,0-0.2,0-0.3,0.1c-0.1,0-0.1,0.1-0.2,0.2v4.4h-1.3v-4.2
							c0-0.1,0-0.2,0-0.3s-0.1-0.1-0.1-0.2s-0.1-0.1-0.1-0.1c-0.1,0-0.1,0-0.2,0c-0.1,0-0.2,0-0.3,0.1s-0.1,0.2-0.2,0.3v4.4H241
							v-5.8h1.3V262.2z M253.2,265.2c0,0.4,0,0.8-0.1,1.2c-0.1,0.4-0.2,0.7-0.4,0.9c-0.2,0.3-0.4,0.5-0.7,0.6s-0.6,0.2-1,0.2
							c-0.3,0-0.6-0.1-0.9-0.2c-0.2-0.1-0.5-0.3-0.6-0.5l-0.1,0.6H248v-8.3h1.5v3c0.2-0.2,0.4-0.4,0.6-0.5c0.2-0.1,0.5-0.2,0.8-0.2
							c0.4,0,0.7,0.1,1,0.2s0.5,0.4,0.7,0.6c0.2,0.3,0.3,0.6,0.4,0.9c0.1,0.4,0.1,0.8,0.1,1.2L253.2,265.2L253.2,265.2z M251.7,265
							c0-0.2,0-0.5-0.1-0.7c0-0.2-0.1-0.4-0.2-0.6c-0.1-0.2-0.2-0.3-0.4-0.4s-0.3-0.1-0.6-0.1s-0.5,0.1-0.7,0.2s-0.3,0.3-0.4,0.5
							v2.3c0.1,0.2,0.2,0.4,0.4,0.5s0.4,0.2,0.7,0.2c0.2,0,0.4,0,0.6-0.1c0.1-0.1,0.3-0.2,0.4-0.4c0.1-0.2,0.1-0.3,0.2-0.6
							C251.6,265.6,251.7,265.4,251.7,265L251.7,265z M258.2,268c0-0.1-0.1-0.2-0.1-0.2c0-0.1,0-0.2-0.1-0.3
							c-0.1,0.1-0.2,0.2-0.3,0.3s-0.2,0.1-0.4,0.2c-0.1,0.1-0.3,0.1-0.4,0.1c-0.2,0-0.3,0.1-0.5,0.1c-0.3,0-0.6,0-0.8-0.1
							s-0.5-0.2-0.6-0.4c-0.2-0.2-0.3-0.3-0.4-0.6c-0.1-0.2-0.2-0.4-0.2-0.7c0-0.6,0.2-1.1,0.7-1.4s1.1-0.5,2-0.5h0.8v-0.3
							c0-0.3-0.1-0.5-0.3-0.7s-0.4-0.2-0.8-0.2c-0.3,0-0.5,0.1-0.7,0.2s-0.2,0.3-0.2,0.5h-1.5c0-0.2,0.1-0.5,0.2-0.7
							c0.1-0.2,0.3-0.4,0.5-0.6s0.5-0.3,0.8-0.4s0.6-0.1,1-0.1s0.7,0,1,0.1s0.6,0.2,0.8,0.4c0.2,0.2,0.4,0.4,0.5,0.6
							c0.1,0.3,0.2,0.6,0.2,0.9v2.5c0,0.3,0,0.6,0.1,0.8c0,0.2,0.1,0.4,0.2,0.5v0.1L258.2,268L258.2,268z M256.8,267
							c0.2,0,0.3,0,0.4-0.1s0.2-0.1,0.3-0.1c0.1-0.1,0.2-0.1,0.3-0.2s0.1-0.1,0.2-0.2v-1h-0.8c-0.2,0-0.4,0-0.6,0.1
							c-0.2,0-0.3,0.1-0.4,0.2s-0.2,0.2-0.2,0.3c-0.1,0.1-0.1,0.2-0.1,0.4c0,0.2,0.1,0.4,0.2,0.5C256.3,266.9,256.5,267,256.8,267z
							 M262.1,262.2h3v5.9c0,0.4-0.1,0.7-0.2,1s-0.3,0.5-0.5,0.7s-0.5,0.3-0.8,0.4s-0.7,0.1-1,0.1c-0.2,0-0.3,0-0.5,0
							s-0.3,0-0.5-0.1l0.1-1.2c0,0,0.1,0,0.2,0s0.2,0,0.2,0h0.2c0.1,0,0.1,0,0.2,0s0.3,0,0.4,0s0.2-0.1,0.3-0.2s0.2-0.2,0.2-0.3
							s0.1-0.3,0.1-0.5v-4.7H262L262.1,262.2L262.1,262.2z M263.5,260.7c0-0.1,0-0.2,0.1-0.3c0-0.1,0.1-0.2,0.2-0.3
							c0.1-0.1,0.2-0.1,0.3-0.2c0.1,0,0.2-0.1,0.4-0.1c0.3,0,0.5,0.1,0.6,0.2s0.2,0.3,0.2,0.6s-0.1,0.4-0.2,0.6s-0.4,0.2-0.6,0.2
							c-0.1,0-0.2,0-0.4-0.1c-0.1,0-0.2-0.1-0.3-0.2c-0.1-0.1-0.1-0.2-0.2-0.3C263.5,260.9,263.5,260.8,263.5,260.7z M271.4,268
							c0-0.1-0.1-0.2-0.1-0.2c0-0.1,0-0.2-0.1-0.3c-0.1,0.1-0.2,0.2-0.3,0.3s-0.2,0.1-0.4,0.2c-0.1,0.1-0.3,0.1-0.4,0.1
							c-0.2,0-0.3,0.1-0.5,0.1c-0.3,0-0.6,0-0.8-0.1c-0.2-0.1-0.5-0.2-0.6-0.4c-0.2-0.2-0.3-0.3-0.4-0.6c-0.1-0.2-0.2-0.4-0.2-0.7
							c0-0.6,0.2-1.1,0.7-1.4s1.1-0.5,2-0.5h0.8v-0.3c0-0.3-0.1-0.5-0.3-0.7s-0.4-0.2-0.8-0.2c-0.3,0-0.5,0.1-0.7,0.2
							s-0.2,0.3-0.2,0.5h-1.5c0-0.2,0.1-0.5,0.2-0.7s0.3-0.4,0.5-0.6s0.5-0.3,0.8-0.4s0.6-0.1,1-0.1s0.7,0,1,0.1s0.6,0.2,0.8,0.4
							c0.2,0.2,0.4,0.4,0.5,0.6c0.1,0.3,0.2,0.6,0.2,0.9v2.5c0,0.3,0,0.6,0.1,0.8c0,0.2,0.1,0.4,0.2,0.5v0.1L271.4,268L271.4,268z
							 M270,267c0.2,0,0.3,0,0.4-0.1s0.2-0.1,0.3-0.1c0.1-0.1,0.2-0.1,0.3-0.2s0.1-0.1,0.2-0.2v-1h-0.8c-0.2,0-0.4,0-0.6,0.1
							c-0.2,0-0.3,0.1-0.4,0.2s-0.2,0.2-0.2,0.3c-0.1,0.1-0.1,0.2-0.1,0.4c0,0.2,0.1,0.4,0.2,0.5C269.5,266.9,269.7,267,270,267z
							 M274.3,265.1c0-0.4,0.1-0.8,0.2-1.2s0.3-0.7,0.4-0.9c0.2-0.3,0.4-0.5,0.7-0.6c0.3-0.1,0.6-0.2,1-0.2c0.3,0,0.6,0.1,0.8,0.2
							s0.4,0.3,0.6,0.5v-3h1.5v8.3h-1.3l-0.1-0.6c-0.2,0.2-0.4,0.4-0.6,0.5s-0.5,0.2-0.9,0.2s-0.7-0.1-1-0.2s-0.5-0.4-0.7-0.6
							c-0.2-0.3-0.3-0.6-0.4-0.9c-0.1-0.4-0.2-0.8-0.2-1.2V265.1z M275.7,265.2c0,0.2,0,0.5,0.1,0.7c0,0.2,0.1,0.4,0.2,0.5
							c0.1,0.2,0.2,0.3,0.4,0.4c0.1,0.1,0.3,0.1,0.5,0.1c0.3,0,0.5-0.1,0.6-0.2c0.2-0.1,0.3-0.3,0.4-0.5v-2.4
							c-0.1-0.2-0.2-0.4-0.4-0.5c-0.2-0.1-0.4-0.2-0.6-0.2s-0.4,0-0.5,0.1s-0.3,0.2-0.4,0.4c-0.1,0.2-0.2,0.3-0.2,0.6
							s-0.1,0.4-0.1,0.7V265.2z M280.8,265c0-0.4,0.1-0.8,0.2-1.2c0.1-0.4,0.3-0.7,0.5-0.9c0.2-0.3,0.5-0.5,0.9-0.6s0.7-0.2,1.2-0.2
							c0.4,0,0.8,0.1,1.2,0.2c0.3,0.2,0.6,0.4,0.9,0.6c0.2,0.3,0.4,0.6,0.5,0.9c0.1,0.4,0.2,0.8,0.2,1.2v0.1c0,0.4-0.1,0.8-0.2,1.2
							c-0.1,0.4-0.3,0.7-0.5,0.9c-0.2,0.3-0.5,0.5-0.9,0.6c-0.3,0.1-0.7,0.2-1.2,0.2c-0.4,0-0.8-0.1-1.2-0.2
							c-0.3-0.1-0.6-0.4-0.9-0.6c-0.2-0.3-0.4-0.6-0.5-0.9c-0.1-0.4-0.2-0.8-0.2-1.2V265z M282.3,265.2c0,0.2,0,0.5,0.1,0.7
							c0,0.2,0.1,0.4,0.2,0.6s0.2,0.3,0.4,0.4c0.2,0.1,0.4,0.1,0.6,0.1s0.4,0,0.6-0.1s0.3-0.2,0.4-0.4c0.1-0.2,0.2-0.3,0.2-0.6
							c0-0.2,0.1-0.4,0.1-0.7V265c0-0.2,0-0.5-0.1-0.7c0-0.2-0.1-0.4-0.2-0.6s-0.2-0.3-0.4-0.4c-0.2-0.1-0.3-0.1-0.6-0.1
							c-0.2,0-0.4,0-0.6,0.1s-0.3,0.2-0.4,0.4c-0.1,0.2-0.2,0.3-0.2,0.6c0,0.2-0.1,0.4-0.1,0.7V265.2z M291.8,262.1
							c0.2,0,0.4,0,0.6,0s0.3,0.1,0.5,0.1l-0.2,1.5c-0.2,0-0.4-0.1-0.6-0.1s-0.4,0-0.6,0c-0.4,0-0.8,0.1-1,0.2s-0.4,0.4-0.6,0.7v3.5
							h-1.5v-5.8h1.4l0.1,1c0.2-0.3,0.5-0.6,0.8-0.8C291,262.2,291.4,262.1,291.8,262.1z M297,268.1c-0.4,0-0.9-0.1-1.2-0.2
							s-0.7-0.3-0.9-0.6c-0.3-0.3-0.5-0.5-0.6-0.9c-0.1-0.3-0.2-0.7-0.2-1.1v-0.2c0-0.4,0.1-0.8,0.2-1.2s0.3-0.7,0.6-0.9
							c0.3-0.3,0.5-0.5,0.9-0.6s0.7-0.2,1.1-0.2s0.8,0.1,1.1,0.2s0.6,0.3,0.8,0.6c0.2,0.3,0.4,0.6,0.5,0.9s0.2,0.7,0.2,1.2v0.6h-3.9
							c0,0.2,0.1,0.4,0.2,0.5c0.1,0.2,0.2,0.3,0.3,0.4c0.1,0.1,0.3,0.2,0.5,0.3c0.2,0.1,0.4,0.1,0.6,0.1c0.1,0,0.3,0,0.4,0
							s0.3-0.1,0.4-0.1c0.1-0.1,0.3-0.1,0.4-0.2s0.2-0.2,0.3-0.3l0.7,0.8c-0.1,0.1-0.2,0.3-0.4,0.4c-0.1,0.1-0.3,0.2-0.5,0.3
							c-0.2,0.1-0.4,0.2-0.7,0.2S297.3,268.1,297,268.1z M296.9,263.3c-0.2,0-0.3,0-0.5,0.1s-0.3,0.1-0.4,0.3
							c-0.1,0.1-0.2,0.2-0.3,0.4c-0.1,0.2-0.1,0.3-0.2,0.5h2.4v-0.1c0-0.2,0-0.3-0.1-0.4s-0.1-0.3-0.2-0.4s-0.2-0.2-0.4-0.2
							S297,263.3,296.9,263.3z M304.6,266.4c0-0.1,0-0.2-0.1-0.2c0-0.1-0.1-0.1-0.2-0.2s-0.2-0.1-0.4-0.2c-0.2-0.1-0.4-0.1-0.7-0.2
							c-0.3-0.1-0.7-0.2-0.9-0.3c-0.3-0.1-0.5-0.2-0.7-0.4c-0.2-0.1-0.4-0.3-0.5-0.5s-0.2-0.4-0.2-0.7c0-0.2,0.1-0.5,0.2-0.7
							s0.3-0.4,0.5-0.6s0.5-0.3,0.8-0.4s0.7-0.1,1-0.1c0.4,0,0.8,0,1.1,0.1s0.6,0.2,0.8,0.4c0.2,0.2,0.4,0.4,0.5,0.6
							s0.2,0.5,0.2,0.7h-1.5c0-0.2-0.1-0.4-0.3-0.6s-0.5-0.2-0.8-0.2s-0.6,0.1-0.8,0.2s-0.3,0.3-0.3,0.5c0,0.1,0,0.2,0.1,0.2
							c0,0.1,0.1,0.1,0.2,0.2s0.2,0.1,0.4,0.2c0.2,0,0.4,0.1,0.6,0.1c0.4,0.1,0.7,0.1,1,0.2s0.6,0.2,0.8,0.3
							c0.2,0.1,0.4,0.3,0.5,0.5s0.2,0.4,0.2,0.7c0,0.3-0.1,0.5-0.2,0.7s-0.3,0.4-0.5,0.6s-0.5,0.3-0.8,0.4s-0.7,0.1-1.1,0.1
							s-0.8-0.1-1.2-0.2c-0.3-0.1-0.6-0.3-0.8-0.4s-0.4-0.4-0.5-0.6s-0.2-0.5-0.2-0.7h1.4c0,0.2,0.1,0.3,0.1,0.4s0.2,0.2,0.3,0.3
							s0.3,0.1,0.4,0.2c0.2,0,0.3,0,0.5,0c0.4,0,0.6-0.1,0.8-0.2S304.6,266.6,304.6,266.4z"/>
						<path id="Rectangle-4_3_" class="st13" d="M132.5,306.5h66c1.7,0,3,1.3,3,3v18c0,1.7-1.3,3-3,3h-66c-1.7,0-3-1.3-3-3v-18
							C129.5,307.8,130.8,306.5,132.5,306.5z"/>
						<path id="Nuevos-Ministerios_3_" class="st14" d="M150.5,320.4h-2.3l-0.5,1.6h-1.6l2.6-7.8h1.4l2.5,7.8H151L150.5,320.4z
							 M148.5,319.1h1.6l-0.8-2.9L148.5,319.1z M153.6,313.7h3.2v7h1.7v1.2h-4.9v-1.2h1.7V315h-1.7V313.7z M163.6,321.2
							c-0.2,0.3-0.4,0.5-0.7,0.7s-0.6,0.2-0.9,0.2c-0.3,0-0.6,0-0.8-0.1s-0.5-0.2-0.6-0.4c-0.2-0.2-0.3-0.5-0.4-0.8
							c-0.1-0.3-0.1-0.7-0.1-1.1v-3.4h1.5v3.4c0,0.2,0,0.4,0.1,0.6c0,0.2,0.1,0.3,0.2,0.4s0.2,0.2,0.3,0.2s0.3,0.1,0.4,0.1
							c0.3,0,0.5-0.1,0.7-0.2s0.3-0.3,0.4-0.5v-4.1h1.5v5.8h-1.4L163.6,321.2z M169.1,320.9c0.1,0,0.3,0,0.4-0.1
							c0.1,0,0.2-0.1,0.3-0.2s0.2-0.2,0.2-0.3c0.1-0.1,0.1-0.2,0.1-0.4h1.4c0,0.3-0.1,0.6-0.2,0.8c-0.1,0.3-0.3,0.5-0.5,0.7
							s-0.5,0.3-0.8,0.4s-0.6,0.2-0.9,0.2c-0.5,0-0.8-0.1-1.2-0.2c-0.3-0.2-0.6-0.4-0.9-0.6c-0.2-0.3-0.4-0.6-0.5-0.9
							c-0.1-0.4-0.2-0.7-0.2-1.1V319c0-0.4,0.1-0.8,0.2-1.1c0.1-0.4,0.3-0.7,0.5-0.9c0.2-0.3,0.5-0.5,0.9-0.6s0.7-0.2,1.2-0.2
							c0.4,0,0.7,0.1,1,0.2s0.6,0.3,0.8,0.5s0.4,0.4,0.5,0.7c0.1,0.3,0.2,0.6,0.2,0.9h-1.4c0-0.1,0-0.3-0.1-0.4s-0.1-0.2-0.2-0.3
							s-0.2-0.2-0.3-0.2c-0.1-0.1-0.3-0.1-0.4-0.1c-0.2,0-0.4,0-0.6,0.1c-0.2,0.1-0.3,0.2-0.4,0.4s-0.2,0.3-0.2,0.6
							s-0.1,0.4-0.1,0.6v0.2c0,0.2,0,0.4,0.1,0.7c0,0.2,0.1,0.4,0.2,0.6s0.2,0.3,0.4,0.4S168.8,320.9,169.1,320.9z M174.6,317
							c0.2-0.3,0.4-0.5,0.7-0.7s0.6-0.2,0.9-0.2c0.3,0,0.6,0,0.8,0.1c0.3,0.1,0.5,0.2,0.7,0.4s0.3,0.4,0.4,0.7s0.2,0.7,0.2,1.1v3.5
							h-1.5v-3.5c0-0.2,0-0.4-0.1-0.5c-0.1-0.2-0.1-0.3-0.2-0.4s-0.2-0.2-0.3-0.2s-0.3-0.1-0.5-0.1c-0.3,0-0.5,0-0.7,0.1
							s-0.3,0.2-0.5,0.4v4.2H173v-8.3h1.5v3.4H174.6z M182.5,322.1c-0.4,0-0.9-0.1-1.2-0.2s-0.7-0.3-0.9-0.6s-0.5-0.5-0.6-0.9
							c-0.1-0.3-0.2-0.7-0.2-1.1v-0.2c0-0.4,0.1-0.8,0.2-1.2s0.3-0.7,0.6-0.9c0.3-0.3,0.5-0.5,0.9-0.6s0.7-0.2,1.1-0.2
							c0.4,0,0.8,0.1,1.1,0.2s0.6,0.3,0.8,0.6c0.2,0.3,0.4,0.6,0.5,0.9s0.2,0.7,0.2,1.2v0.6h-3.9c0,0.2,0.1,0.4,0.2,0.5
							c0.1,0.2,0.2,0.3,0.3,0.4s0.3,0.2,0.5,0.3c0.2,0.1,0.4,0.1,0.6,0.1c0.1,0,0.3,0,0.4,0s0.3-0.1,0.4-0.1
							c0.1-0.1,0.3-0.1,0.4-0.2c0.1-0.1,0.2-0.2,0.3-0.3l0.7,0.8c-0.1,0.1-0.2,0.3-0.4,0.4c-0.1,0.1-0.3,0.2-0.5,0.3
							s-0.4,0.2-0.7,0.2S182.8,322.1,182.5,322.1z M182.3,317.3c-0.2,0-0.3,0-0.5,0.1s-0.3,0.1-0.4,0.3c-0.1,0.1-0.2,0.2-0.3,0.4
							c-0.1,0.2-0.1,0.3-0.2,0.5h2.4v-0.1c0-0.2,0-0.3-0.1-0.4s-0.1-0.3-0.2-0.4c-0.1-0.1-0.2-0.2-0.4-0.2S182.5,317.3,182.3,317.3z
							"/>
						<path id="Rectangle-4_4_" class="st13" d="M257.5,327.5h73c1.7,0,3,1.3,3,3v18c0,1.7-1.3,3-3,3h-73c-1.7,0-3-1.3-3-3v-18
							C254.5,328.8,255.8,327.5,257.5,327.5z"/>
						<path id="Nuevos-Ministerios_4_" class="st14" d="M273.5,341.8h3.7v1.2H272v-7.8h1.5V341.8z M281.3,343.1
							c-0.4,0-0.9-0.1-1.2-0.2s-0.7-0.3-0.9-0.6c-0.3-0.3-0.5-0.5-0.6-0.9s-0.2-0.7-0.2-1.1v-0.2c0-0.4,0.1-0.8,0.2-1.2
							s0.3-0.7,0.6-0.9c0.3-0.3,0.5-0.5,0.9-0.6s0.7-0.2,1.1-0.2s0.8,0.1,1.1,0.2s0.6,0.3,0.8,0.6s0.4,0.6,0.5,0.9s0.2,0.7,0.2,1.2
							v0.6h-3.9c0,0.2,0.1,0.4,0.2,0.5s0.2,0.3,0.3,0.4s0.3,0.2,0.5,0.3c0.2,0.1,0.4,0.1,0.6,0.1c0.1,0,0.3,0,0.4,0s0.3-0.1,0.4-0.1
							c0.1-0.1,0.3-0.1,0.4-0.2s0.2-0.2,0.3-0.3l0.7,0.8c-0.1,0.1-0.2,0.3-0.4,0.4c-0.1,0.1-0.3,0.2-0.5,0.3
							c-0.2,0.1-0.4,0.2-0.7,0.2S281.6,343.1,281.3,343.1z M281.2,338.3c-0.2,0-0.3,0-0.5,0.1s-0.3,0.1-0.4,0.3
							c-0.1,0.1-0.2,0.2-0.3,0.4s-0.1,0.3-0.2,0.5h2.4v-0.1c0-0.2,0-0.3-0.1-0.4s-0.1-0.3-0.2-0.4s-0.2-0.2-0.4-0.2
							S281.4,338.3,281.2,338.3z M285,340.1c0-0.4,0.1-0.8,0.2-1.2s0.3-0.7,0.5-0.9s0.5-0.5,0.7-0.6s0.6-0.2,1-0.2
							c0.3,0,0.6,0.1,0.9,0.2s0.5,0.3,0.6,0.5l0.1-0.6h1.4v5.6c0,0.4-0.1,0.7-0.2,1.1s-0.3,0.6-0.6,0.8s-0.5,0.4-0.9,0.5
							s-0.7,0.2-1.1,0.2c-0.2,0-0.4,0-0.6-0.1s-0.4-0.1-0.6-0.2s-0.4-0.2-0.6-0.3c-0.2-0.1-0.3-0.3-0.5-0.4l0.7-0.9
							c0.2,0.2,0.4,0.4,0.6,0.5s0.5,0.2,0.8,0.2c0.4,0,0.7-0.1,1-0.3c0.2-0.2,0.4-0.5,0.4-1v-0.3c-0.2,0.2-0.4,0.3-0.6,0.5
							c-0.2,0.1-0.5,0.2-0.8,0.2c-0.4,0-0.7-0.1-1-0.2s-0.5-0.4-0.7-0.6s-0.4-0.6-0.5-0.9s-0.2-0.8-0.2-1.2L285,340.1L285,340.1z
							 M286.5,340.2c0,0.2,0,0.5,0.1,0.7s0.1,0.4,0.2,0.5s0.2,0.3,0.4,0.4c0.2,0.1,0.3,0.1,0.5,0.1c0.3,0,0.5-0.1,0.6-0.2
							c0.2-0.1,0.3-0.2,0.4-0.4v-2.5c-0.1-0.2-0.2-0.3-0.4-0.4c-0.2-0.1-0.4-0.1-0.6-0.1s-0.4,0-0.5,0.1c-0.2,0.1-0.3,0.2-0.4,0.4
							s-0.2,0.3-0.2,0.6S286.5,339.8,286.5,340.2L286.5,340.2z M295.4,343c0-0.1-0.1-0.2-0.1-0.2s0-0.2-0.1-0.3
							c-0.1,0.1-0.2,0.2-0.3,0.3s-0.2,0.1-0.4,0.2s-0.3,0.1-0.4,0.1s-0.3,0.1-0.5,0.1c-0.3,0-0.6,0-0.8-0.1s-0.5-0.2-0.6-0.4
							s-0.3-0.3-0.4-0.6c-0.1-0.2-0.2-0.4-0.2-0.7c0-0.6,0.2-1.1,0.7-1.4s1.1-0.5,2-0.5h0.8v-0.3c0-0.3-0.1-0.5-0.3-0.7
							s-0.4-0.2-0.8-0.2c-0.3,0-0.5,0.1-0.7,0.2s-0.2,0.3-0.2,0.5h-1.5c0-0.2,0.1-0.5,0.2-0.7s0.3-0.4,0.5-0.6s0.5-0.3,0.8-0.4
							s0.6-0.1,1-0.1s0.7,0,1,0.1s0.6,0.2,0.8,0.4s0.4,0.4,0.5,0.6s0.2,0.6,0.2,0.9v2.5c0,0.3,0,0.6,0.1,0.8s0.1,0.4,0.2,0.5v0.1
							L295.4,343L295.4,343z M293.9,342c0.2,0,0.3,0,0.4-0.1s0.2-0.1,0.3-0.1s0.2-0.1,0.3-0.2s0.1-0.1,0.2-0.2v-1h-0.8
							c-0.2,0-0.4,0-0.6,0.1c-0.2,0-0.3,0.1-0.4,0.2s-0.2,0.2-0.2,0.3s-0.1,0.2-0.1,0.4c0,0.2,0.1,0.4,0.2,0.5S293.6,342,293.9,342z
							 M300.2,341.8h3.4v1.2h-5.5v-0.9l3.3-3.7h-3.2v-1.2h5.3v0.9L300.2,341.8z M310.1,340.1c0,0.4,0,0.8-0.1,1.2s-0.2,0.7-0.4,0.9
							c-0.2,0.3-0.4,0.5-0.7,0.6c-0.3,0.2-0.6,0.2-1,0.2c-0.3,0-0.6-0.1-0.8-0.2s-0.4-0.3-0.6-0.5v2.7H305v-8h1.4l0.1,0.6
							c0.2-0.2,0.4-0.4,0.6-0.5s0.5-0.2,0.9-0.2s0.7,0.1,1,0.2s0.5,0.3,0.7,0.6s0.3,0.6,0.4,0.9s0.1,0.8,0.1,1.2v0.3H310.1z
							 M308.6,340c0-0.2,0-0.5-0.1-0.7s-0.1-0.4-0.2-0.6s-0.2-0.3-0.4-0.4c-0.1-0.1-0.3-0.1-0.5-0.1c-0.3,0-0.5,0.1-0.6,0.2
							s-0.3,0.2-0.4,0.4v2.4c0.1,0.2,0.2,0.3,0.4,0.4s0.4,0.2,0.7,0.2c0.2,0,0.4,0,0.5-0.1s0.3-0.2,0.4-0.4s0.2-0.3,0.2-0.6
							s0.1-0.4,0.1-0.7v0H308.6z M311.9,337.2h3.2v4.6h1.6v1.2H312v-1.2h1.7v-3.4H312v-1.2H311.9z M313.5,335.7c0-0.1,0-0.2,0.1-0.3
							c0-0.1,0.1-0.2,0.2-0.3s0.2-0.1,0.3-0.2c0.1,0,0.2-0.1,0.4-0.1c0.3,0,0.5,0.1,0.6,0.2s0.2,0.3,0.2,0.6s-0.1,0.4-0.2,0.6
							s-0.4,0.2-0.6,0.2c-0.1,0-0.2,0-0.4-0.1c-0.1,0-0.2-0.1-0.3-0.2s-0.1-0.2-0.2-0.3C313.5,335.9,313.5,335.8,313.5,335.7z"/>
						<path id="Rectangle-4_5_" class="st13" d="M3.5,382.5h119c1.7,0,3,1.3,3,3v18c0,1.7-1.3,3-3,3H3.5c-1.7,0-3-1.3-3-3v-18
							C0.5,383.8,1.8,382.5,3.5,382.5z"/>
						<path id="Nuevos-Ministerios_5_" class="st14" d="M19.5,395.1v2.9H18v-7.8h2.7c0.4,0,0.8,0.1,1.2,0.2c0.3,0.1,0.6,0.3,0.9,0.5
							c0.2,0.2,0.4,0.5,0.6,0.8s0.2,0.6,0.2,1s-0.1,0.7-0.2,1s-0.3,0.6-0.6,0.8c-0.2,0.2-0.5,0.4-0.9,0.5c-0.3,0.1-0.7,0.2-1.2,0.2
							h-1.2V395.1z M19.5,393.9h1.2c0.2,0,0.4,0,0.6-0.1s0.3-0.2,0.4-0.3c0.1-0.1,0.2-0.2,0.2-0.4c0.1-0.1,0.1-0.3,0.1-0.5
							s0-0.4-0.1-0.5c-0.1-0.2-0.1-0.3-0.2-0.4s-0.2-0.2-0.4-0.3s-0.3-0.1-0.6-0.1h-1.2V393.9z M28.3,397.2
							c-0.2,0.3-0.4,0.5-0.7,0.7s-0.6,0.2-0.9,0.2s-0.6,0-0.8-0.1s-0.5-0.2-0.6-0.4c-0.2-0.2-0.3-0.5-0.4-0.8s-0.1-0.7-0.1-1.1v-3.4
							h1.5v3.4c0,0.2,0,0.4,0.1,0.6c0,0.2,0.1,0.3,0.2,0.4s0.2,0.2,0.3,0.2c0.1,0,0.3,0.1,0.4,0.1c0.3,0,0.5-0.1,0.7-0.2
							s0.3-0.3,0.4-0.5v-4.1h1.5v5.8h-1.4L28.3,397.2z M34,398.1c-0.4,0-0.9-0.1-1.2-0.2c-0.4-0.1-0.7-0.3-0.9-0.6s-0.5-0.5-0.6-0.9
							s-0.2-0.7-0.2-1.1v-0.2c0-0.4,0.1-0.8,0.2-1.2c0.1-0.4,0.3-0.7,0.6-0.9s0.5-0.5,0.9-0.6c0.3-0.1,0.7-0.2,1.1-0.2
							c0.4,0,0.8,0.1,1.1,0.2s0.6,0.3,0.8,0.6c0.2,0.3,0.4,0.6,0.5,0.9s0.2,0.7,0.2,1.2v0.6h-3.9c0,0.2,0.1,0.4,0.2,0.5
							c0.1,0.2,0.2,0.3,0.3,0.4s0.3,0.2,0.5,0.3s0.4,0.1,0.6,0.1c0.1,0,0.3,0,0.4,0s0.3-0.1,0.4-0.1s0.3-0.1,0.4-0.2
							c0.1-0.1,0.2-0.2,0.3-0.3l0.7,0.8c-0.1,0.1-0.2,0.3-0.4,0.4s-0.3,0.2-0.5,0.3S35,398,34.8,398C34.5,398.1,34.3,398.1,34,398.1
							z M33.8,393.3c-0.2,0-0.3,0-0.5,0.1s-0.3,0.1-0.4,0.3s-0.2,0.2-0.3,0.4c-0.1,0.2-0.1,0.3-0.2,0.5H35v-0.1c0-0.2,0-0.3-0.1-0.4
							s-0.1-0.3-0.2-0.4s-0.2-0.2-0.4-0.2S34,393.3,33.8,393.3z M41.9,392.1c0.2,0,0.4,0,0.6,0s0.3,0.1,0.5,0.1l-0.2,1.5
							c-0.2,0-0.4-0.1-0.6-0.1c-0.2,0-0.4,0-0.6,0c-0.4,0-0.8,0.1-1,0.2c-0.3,0.2-0.4,0.4-0.6,0.7v3.5h-1.5v-5.8h1.4l0.1,1
							c0.2-0.3,0.5-0.6,0.8-0.8S41.6,392.1,41.9,392.1z M47.1,390.8v1.4h2.2v1.1h-2.2v2.5c0,0.2,0,0.4,0.1,0.5s0.1,0.3,0.2,0.3
							s0.2,0.1,0.3,0.2s0.3,0.1,0.4,0.1c0.1,0,0.2,0,0.4,0c0.1,0,0.2,0,0.3,0s0.2,0,0.3-0.1s0.2,0,0.2-0.1l0.1,1
							c-0.1,0.1-0.2,0.1-0.4,0.2s-0.3,0.1-0.4,0.1c-0.2,0-0.3,0.1-0.5,0.1s-0.3,0-0.5,0c-0.3,0-0.6,0-0.9-0.1
							c-0.3-0.1-0.5-0.2-0.7-0.4c-0.2-0.2-0.3-0.4-0.4-0.7s-0.2-0.6-0.2-1v-2.6h-1.3v-1.1h1.3v-1.4H47.1z M54.6,398
							c0-0.1-0.1-0.2-0.1-0.2c0-0.1,0-0.2-0.1-0.3c-0.1,0.1-0.2,0.2-0.3,0.3s-0.2,0.1-0.4,0.2c-0.1,0.1-0.3,0.1-0.4,0.1
							c-0.2,0-0.3,0.1-0.5,0.1c-0.3,0-0.6,0-0.8-0.1s-0.5-0.2-0.6-0.4c-0.2-0.2-0.3-0.3-0.4-0.6s-0.2-0.4-0.2-0.7
							c0-0.6,0.2-1.1,0.7-1.4s1.1-0.5,2-0.5h0.8v-0.3c0-0.3-0.1-0.5-0.3-0.7s-0.4-0.2-0.8-0.2c-0.3,0-0.5,0.1-0.7,0.2
							s-0.2,0.3-0.2,0.5H51c0-0.2,0.1-0.5,0.2-0.7c0.1-0.2,0.3-0.4,0.5-0.6s0.5-0.3,0.8-0.4s0.6-0.1,1-0.1s0.7,0,1,0.1
							s0.6,0.2,0.8,0.4c0.2,0.2,0.4,0.4,0.5,0.6c0.1,0.3,0.2,0.6,0.2,0.9v2.5c0,0.3,0,0.6,0.1,0.8c0,0.2,0.1,0.4,0.2,0.5v0.1
							L54.6,398L54.6,398z M53.2,397c0.2,0,0.3,0,0.4-0.1s0.2-0.1,0.3-0.1c0.1-0.1,0.2-0.1,0.3-0.2s0.1-0.1,0.2-0.2v-1h-0.8
							c-0.2,0-0.4,0-0.6,0.1s-0.3,0.1-0.4,0.2c-0.1,0.1-0.2,0.2-0.2,0.3c-0.1,0.1-0.1,0.2-0.1,0.4c0,0.2,0.1,0.4,0.2,0.5
							C52.7,396.9,52.9,397,53.2,397z M64.1,398v-7.8h2c0.5,0,1,0.1,1.4,0.3s0.8,0.4,1.1,0.7c0.3,0.3,0.5,0.7,0.7,1.1
							s0.2,0.9,0.2,1.5v0.6c0,0.5-0.1,1-0.2,1.4s-0.4,0.8-0.7,1.1c-0.3,0.3-0.6,0.6-1.1,0.7c-0.4,0.2-0.9,0.3-1.4,0.3L64.1,398
							L64.1,398z M65.6,391.4v5.4h0.6c0.3,0,0.5-0.1,0.8-0.2c0.2-0.1,0.4-0.3,0.6-0.5s0.3-0.5,0.4-0.7s0.1-0.6,0.1-1v-0.7
							c0-0.4,0-0.7-0.1-1s-0.2-0.5-0.4-0.7c-0.2-0.2-0.4-0.4-0.6-0.5s-0.5-0.2-0.8-0.2h-0.6V391.4z M73.6,398.1
							c-0.4,0-0.9-0.1-1.2-0.2s-0.7-0.3-0.9-0.6c-0.3-0.3-0.5-0.5-0.6-0.9s-0.2-0.7-0.2-1.1v-0.2c0-0.4,0.1-0.8,0.2-1.2
							s0.3-0.7,0.6-0.9c0.3-0.3,0.5-0.5,0.9-0.6s0.7-0.2,1.1-0.2s0.8,0.1,1.1,0.2s0.6,0.3,0.8,0.6s0.4,0.6,0.5,0.9s0.2,0.7,0.2,1.2
							v0.6h-3.9c0,0.2,0.1,0.4,0.2,0.5s0.2,0.3,0.3,0.4s0.3,0.2,0.5,0.3c0.2,0.1,0.4,0.1,0.6,0.1c0.1,0,0.3,0,0.4,0s0.3-0.1,0.4-0.1
							c0.1-0.1,0.3-0.1,0.4-0.2s0.2-0.2,0.3-0.3L76,397c-0.1,0.1-0.2,0.3-0.4,0.4c-0.1,0.1-0.3,0.2-0.5,0.3
							c-0.2,0.1-0.4,0.2-0.7,0.2S73.9,398.1,73.6,398.1z M73.4,393.3c-0.2,0-0.3,0-0.5,0.1s-0.3,0.1-0.4,0.3
							c-0.1,0.1-0.2,0.2-0.3,0.4s-0.1,0.3-0.2,0.5h2.4v-0.1c0-0.2,0-0.3-0.1-0.4s-0.1-0.3-0.2-0.4s-0.2-0.2-0.4-0.2
							S73.6,393.3,73.4,393.3z M77.7,389.7h3.2v7h1.7v1.2h-4.9v-1.2h1.7V391h-1.7C77.7,391,77.7,389.7,77.7,389.7z M94.6,396
							c0-0.1,0-0.3-0.1-0.4s-0.1-0.2-0.2-0.3c-0.1-0.1-0.3-0.2-0.5-0.3s-0.4-0.2-0.7-0.2c-0.3-0.1-0.7-0.2-1-0.3
							c-0.3-0.1-0.6-0.3-0.8-0.5s-0.4-0.4-0.6-0.7s-0.2-0.6-0.2-0.9s0.1-0.6,0.2-0.9s0.3-0.5,0.6-0.7s0.5-0.3,0.9-0.4
							c0.3-0.1,0.7-0.2,1.1-0.2s0.8,0.1,1.1,0.2s0.6,0.3,0.9,0.5s0.4,0.5,0.6,0.8s0.2,0.6,0.2,1h-1.5c0-0.2,0-0.3-0.1-0.5
							s-0.1-0.3-0.2-0.4s-0.2-0.2-0.4-0.2s-0.4-0.1-0.6-0.1s-0.4,0-0.5,0.1s-0.3,0.1-0.4,0.2s-0.2,0.2-0.2,0.3s-0.1,0.2-0.1,0.4
							c0,0.1,0,0.3,0.1,0.4s0.2,0.2,0.3,0.3s0.3,0.2,0.5,0.3s0.4,0.2,0.7,0.2c0.4,0.1,0.7,0.2,1,0.4s0.6,0.3,0.8,0.5
							s0.4,0.4,0.5,0.7s0.2,0.6,0.2,0.9s-0.1,0.6-0.2,0.9s-0.3,0.5-0.6,0.7s-0.5,0.3-0.9,0.4c-0.3,0.1-0.7,0.1-1.1,0.1
							c-0.2,0-0.5,0-0.7-0.1c-0.2,0-0.5-0.1-0.7-0.2s-0.4-0.2-0.6-0.3s-0.4-0.3-0.5-0.5s-0.3-0.4-0.3-0.6s-0.1-0.5-0.1-0.8H92
							c0,0.2,0,0.4,0.1,0.6s0.2,0.3,0.3,0.4s0.3,0.2,0.5,0.2s0.4,0.1,0.6,0.1s0.4,0,0.5-0.1s0.3-0.1,0.4-0.2s0.2-0.2,0.2-0.3
							S94.6,396.1,94.6,396z M100.9,397.2c-0.2,0.3-0.4,0.5-0.7,0.7c-0.3,0.2-0.6,0.2-0.9,0.2s-0.6,0-0.8-0.1
							c-0.3-0.1-0.5-0.2-0.6-0.4s-0.3-0.5-0.4-0.8s-0.1-0.7-0.1-1.1v-3.4h1.5v3.4c0,0.2,0,0.4,0.1,0.6s0.1,0.3,0.2,0.4
							s0.2,0.2,0.3,0.2c0.1,0,0.3,0.1,0.4,0.1c0.3,0,0.5-0.1,0.7-0.2s0.3-0.3,0.4-0.5v-4.1h1.5v5.8H101L100.9,397.2z M108,392.1
							c0.2,0,0.4,0,0.6,0s0.3,0.1,0.5,0.1l-0.2,1.5c-0.2,0-0.4-0.1-0.6-0.1s-0.4,0-0.6,0c-0.4,0-0.8,0.1-1,0.2s-0.4,0.4-0.6,0.7v3.5
							h-1.5v-5.8h1.4l0.1,1c0.2-0.3,0.5-0.6,0.8-0.8S107.6,392.1,108,392.1z"/>
						<path id="Rectangle-4_6_" class="st13" d="M114.5,436.5h132c1.7,0,3,1.3,3,3v18c0,1.7-1.3,3-3,3h-132c-1.7,0-3-1.3-3-3v-18
							C111.5,437.8,112.8,436.5,114.5,436.5z"/>
						<path id="Nuevos-Ministerios_6_" class="st14" d="M134.3,449.6c0,0.4-0.1,0.7-0.3,1.1s-0.3,0.6-0.6,0.8
							c-0.2,0.2-0.5,0.4-0.9,0.5c-0.3,0.1-0.7,0.2-1.1,0.2c-0.5,0-0.9-0.1-1.2-0.3c-0.4-0.2-0.7-0.4-0.9-0.7
							c-0.2-0.3-0.4-0.7-0.6-1.1c-0.1-0.4-0.2-0.9-0.2-1.4v-1.1c0-0.5,0.1-1,0.2-1.4c0.1-0.4,0.3-0.8,0.6-1.1
							c0.3-0.3,0.6-0.5,0.9-0.7c0.4-0.2,0.8-0.3,1.2-0.3s0.8,0.1,1.1,0.2s0.6,0.3,0.9,0.5c0.2,0.2,0.4,0.5,0.6,0.8
							c0.1,0.3,0.2,0.7,0.3,1.1h-1.5c0-0.2,0-0.4-0.1-0.6s-0.1-0.3-0.2-0.4c-0.1-0.1-0.2-0.2-0.4-0.3c-0.2-0.1-0.4-0.1-0.6-0.1
							c-0.2,0-0.4,0.1-0.6,0.2c-0.2,0.1-0.3,0.2-0.4,0.4c-0.1,0.2-0.2,0.4-0.2,0.7c-0.1,0.3-0.1,0.6-0.1,1v1.1
							c0,0.8,0.1,1.3,0.3,1.7c0.2,0.4,0.6,0.6,1,0.6s0.7-0.1,0.9-0.3c0.2-0.2,0.4-0.5,0.4-1h1.5V449.6z M139.1,452
							c0-0.1-0.1-0.2-0.1-0.2c0-0.1,0-0.2-0.1-0.3c-0.1,0.1-0.2,0.2-0.3,0.3c-0.1,0.1-0.2,0.1-0.4,0.2c-0.1,0.1-0.3,0.1-0.4,0.1
							c-0.2,0-0.3,0.1-0.5,0.1c-0.3,0-0.6,0-0.8-0.1s-0.5-0.2-0.6-0.4c-0.2-0.2-0.3-0.3-0.4-0.6c-0.1-0.2-0.2-0.4-0.2-0.7
							c0-0.6,0.2-1.1,0.7-1.4s1.1-0.5,2-0.5h0.8v-0.3c0-0.3-0.1-0.5-0.3-0.7s-0.4-0.2-0.8-0.2c-0.3,0-0.5,0.1-0.7,0.2
							c-0.1,0.1-0.2,0.3-0.2,0.5h-1.5c0-0.2,0.1-0.5,0.2-0.7c0.1-0.2,0.3-0.4,0.5-0.6s0.5-0.3,0.8-0.4s0.6-0.1,1-0.1s0.7,0,1,0.1
							s0.6,0.2,0.8,0.4c0.2,0.2,0.4,0.4,0.5,0.6c0.1,0.3,0.2,0.6,0.2,0.9v2.5c0,0.3,0,0.6,0.1,0.8c0,0.2,0.1,0.4,0.2,0.5v0.1
							L139.1,452L139.1,452z M137.7,451c0.2,0,0.3,0,0.4-0.1s0.2-0.1,0.3-0.1c0.1-0.1,0.2-0.1,0.3-0.2s0.1-0.1,0.2-0.2v-1h-0.8
							c-0.2,0-0.4,0-0.6,0.1c-0.2,0-0.3,0.1-0.4,0.2c-0.1,0.1-0.2,0.2-0.2,0.3c-0.1,0.1-0.1,0.2-0.1,0.4c0,0.2,0.1,0.4,0.2,0.5
							C137.2,450.9,137.4,451,137.7,451z M146.3,446.1c0.2,0,0.4,0,0.6,0c0.2,0,0.3,0.1,0.5,0.1l-0.2,1.5c-0.2,0-0.4-0.1-0.6-0.1
							c-0.2,0-0.4,0-0.6,0c-0.4,0-0.8,0.1-1,0.2c-0.3,0.2-0.4,0.4-0.6,0.7v3.5h-1.5v-5.8h1.4l0.1,1c0.2-0.3,0.5-0.6,0.8-0.8
							C145.5,446.2,145.9,446.1,146.3,446.1z M152.3,452c0-0.1-0.1-0.2-0.1-0.2c0-0.1,0-0.2-0.1-0.3c-0.1,0.1-0.2,0.2-0.3,0.3
							c-0.1,0.1-0.2,0.1-0.4,0.2c-0.1,0.1-0.3,0.1-0.4,0.1c-0.2,0-0.3,0.1-0.5,0.1c-0.3,0-0.6,0-0.8-0.1s-0.5-0.2-0.6-0.4
							c-0.2-0.2-0.3-0.3-0.4-0.6c-0.1-0.2-0.2-0.4-0.2-0.7c0-0.6,0.2-1.1,0.7-1.4s1.1-0.5,2-0.5h0.8v-0.3c0-0.3-0.1-0.5-0.3-0.7
							s-0.4-0.2-0.8-0.2c-0.3,0-0.5,0.1-0.7,0.2c-0.1,0.1-0.2,0.3-0.2,0.5h-1.5c0-0.2,0.1-0.5,0.2-0.7c0.1-0.2,0.3-0.4,0.5-0.6
							s0.5-0.3,0.8-0.4s0.6-0.1,1-0.1s0.7,0,1,0.1s0.6,0.2,0.8,0.4c0.2,0.2,0.4,0.4,0.5,0.6c0.1,0.3,0.2,0.6,0.2,0.9v2.5
							c0,0.3,0,0.6,0.1,0.8c0,0.2,0.1,0.4,0.2,0.5v0.1L152.3,452L152.3,452z M150.9,451c0.2,0,0.3,0,0.4-0.1c0.1,0,0.2-0.1,0.3-0.1
							c0.1-0.1,0.2-0.1,0.3-0.2s0.1-0.1,0.2-0.2v-1h-0.8c-0.2,0-0.4,0-0.6,0.1c-0.2,0-0.3,0.1-0.4,0.2c-0.1,0.1-0.2,0.2-0.2,0.3
							c-0.1,0.1-0.1,0.2-0.1,0.4c0,0.2,0.1,0.4,0.2,0.5C150.4,450.9,150.6,451,150.9,451z M160.5,449.2c0,0.4,0,0.8-0.1,1.2
							c-0.1,0.4-0.2,0.7-0.4,0.9c-0.2,0.3-0.4,0.5-0.7,0.6s-0.6,0.2-1,0.2c-0.3,0-0.6-0.1-0.9-0.2c-0.2-0.1-0.5-0.3-0.6-0.5
							l-0.1,0.6h-1.3v-8.3h1.5v3c0.2-0.2,0.4-0.4,0.6-0.5c0.2-0.1,0.5-0.2,0.8-0.2c0.4,0,0.7,0.1,1,0.2s0.5,0.4,0.7,0.6
							c0.2,0.3,0.3,0.6,0.4,0.9c0.1,0.4,0.1,0.8,0.1,1.2V449.2z M159.1,449c0-0.2,0-0.5-0.1-0.7c0-0.2-0.1-0.4-0.2-0.6
							c-0.1-0.2-0.2-0.3-0.4-0.4s-0.3-0.1-0.6-0.1s-0.5,0.1-0.7,0.2s-0.3,0.3-0.4,0.5v2.3c0.1,0.2,0.2,0.4,0.4,0.5s0.4,0.2,0.7,0.2
							c0.2,0,0.4,0,0.6-0.1c0.1-0.1,0.3-0.2,0.4-0.4c0.1-0.2,0.1-0.3,0.2-0.6C159,449.6,159.1,449.4,159.1,449L159.1,449z
							 M165.5,452c0-0.1-0.1-0.2-0.1-0.2c0-0.1,0-0.2-0.1-0.3c-0.1,0.1-0.2,0.2-0.3,0.3c-0.1,0.1-0.2,0.1-0.4,0.2
							c-0.1,0.1-0.3,0.1-0.4,0.1c-0.2,0-0.3,0.1-0.5,0.1c-0.3,0-0.6,0-0.8-0.1s-0.5-0.2-0.6-0.4c-0.2-0.2-0.3-0.3-0.4-0.6
							c-0.1-0.2-0.2-0.4-0.2-0.7c0-0.6,0.2-1.1,0.7-1.4s1.1-0.5,2-0.5h0.8v-0.3c0-0.3-0.1-0.5-0.3-0.7s-0.4-0.2-0.8-0.2
							c-0.3,0-0.5,0.1-0.7,0.2c-0.1,0.1-0.2,0.3-0.2,0.5h-1.5c0-0.2,0.1-0.5,0.2-0.7c0.1-0.2,0.3-0.4,0.5-0.6s0.5-0.3,0.8-0.4
							s0.6-0.1,1-0.1s0.7,0,1,0.1s0.6,0.2,0.8,0.4c0.2,0.2,0.4,0.4,0.5,0.6c0.1,0.3,0.2,0.6,0.2,0.9v2.5c0,0.3,0,0.6,0.1,0.8
							c0,0.2,0.1,0.4,0.2,0.5v0.1L165.5,452L165.5,452z M164.1,451c0.2,0,0.3,0,0.4-0.1c0.1,0,0.2-0.1,0.3-0.1
							c0.1-0.1,0.2-0.1,0.3-0.2s0.1-0.1,0.2-0.2v-1h-0.8c-0.2,0-0.4,0-0.6,0.1c-0.2,0-0.3,0.1-0.4,0.2c-0.1,0.1-0.2,0.2-0.2,0.3
							c-0.1,0.1-0.1,0.2-0.1,0.4c0,0.2,0.1,0.4,0.2,0.5C163.6,450.9,163.8,451,164.1,451z M169.9,446.2l0.1,0.8
							c0.2-0.3,0.5-0.5,0.8-0.7s0.6-0.2,1-0.2c0.3,0,0.6,0,0.8,0.1s0.5,0.2,0.6,0.4c0.2,0.2,0.3,0.4,0.4,0.7
							c0.1,0.3,0.1,0.7,0.1,1.1v3.6h-1.5v-3.6c0-0.2,0-0.4-0.1-0.6c-0.1-0.1-0.1-0.3-0.2-0.4c-0.1-0.1-0.2-0.1-0.3-0.2
							c-0.1,0-0.3-0.1-0.5-0.1c-0.3,0-0.5,0.1-0.6,0.2c-0.2,0.1-0.3,0.2-0.4,0.4v4.1h-1.5V446h1.3V446.2z M177.7,450.9
							c0.1,0,0.3,0,0.4-0.1c0.1,0,0.2-0.1,0.3-0.2s0.2-0.2,0.2-0.3c0.1-0.1,0.1-0.2,0.1-0.4h1.4c0,0.3-0.1,0.6-0.2,0.8
							c-0.1,0.3-0.3,0.5-0.5,0.7s-0.5,0.3-0.8,0.4s-0.6,0.2-0.9,0.2c-0.5,0-0.8-0.1-1.2-0.2c-0.3-0.2-0.6-0.4-0.9-0.6
							c-0.2-0.3-0.4-0.6-0.5-0.9c-0.1-0.4-0.2-0.7-0.2-1.1V449c0-0.4,0.1-0.8,0.2-1.1c0.1-0.4,0.3-0.7,0.5-0.9
							c0.2-0.3,0.5-0.5,0.9-0.6c0.3-0.2,0.7-0.2,1.2-0.2c0.4,0,0.7,0.1,1,0.2s0.6,0.3,0.8,0.5s0.4,0.4,0.5,0.7
							c0.1,0.3,0.2,0.6,0.2,0.9h-1.4c0-0.1,0-0.3-0.1-0.4s-0.1-0.2-0.2-0.3c-0.1-0.1-0.2-0.2-0.3-0.2c-0.1-0.1-0.3-0.1-0.4-0.1
							c-0.2,0-0.4,0-0.6,0.1c-0.2,0.1-0.3,0.2-0.4,0.4c-0.1,0.2-0.2,0.3-0.2,0.6s-0.1,0.4-0.1,0.6v0.2c0,0.2,0,0.4,0.1,0.7
							c0,0.2,0.1,0.4,0.2,0.6s0.2,0.3,0.4,0.4S177.4,450.9,177.7,450.9z M183.2,447c0.2-0.3,0.4-0.5,0.7-0.7s0.6-0.2,0.9-0.2
							c0.3,0,0.6,0,0.8,0.1c0.3,0.1,0.5,0.2,0.7,0.4c0.2,0.2,0.3,0.4,0.4,0.7c0.1,0.3,0.2,0.7,0.2,1.1v3.5h-1.5v-3.5
							c0-0.2,0-0.4-0.1-0.5c-0.1-0.2-0.1-0.3-0.2-0.4c-0.1-0.1-0.2-0.2-0.3-0.2s-0.3-0.1-0.5-0.1c-0.3,0-0.5,0-0.7,0.1
							s-0.3,0.2-0.5,0.4v4.2h-1.5v-8.3h1.5v3.4H183.2z M191.1,452.1c-0.4,0-0.9-0.1-1.2-0.2c-0.4-0.1-0.7-0.3-0.9-0.6
							c-0.3-0.3-0.5-0.5-0.6-0.9c-0.1-0.3-0.2-0.7-0.2-1.1v-0.2c0-0.4,0.1-0.8,0.2-1.2s0.3-0.7,0.6-0.9c0.3-0.3,0.5-0.5,0.9-0.6
							c0.3-0.1,0.7-0.2,1.1-0.2c0.4,0,0.8,0.1,1.1,0.2s0.6,0.3,0.8,0.6c0.2,0.3,0.4,0.6,0.5,0.9s0.2,0.7,0.2,1.2v0.6h-3.9
							c0,0.2,0.1,0.4,0.2,0.5c0.1,0.2,0.2,0.3,0.3,0.4s0.3,0.2,0.5,0.3c0.2,0.1,0.4,0.1,0.6,0.1c0.1,0,0.3,0,0.4,0s0.3-0.1,0.4-0.1
							c0.1-0.1,0.3-0.1,0.4-0.2c0.1-0.1,0.2-0.2,0.3-0.3l0.7,0.8c-0.1,0.1-0.2,0.3-0.4,0.4c-0.1,0.1-0.3,0.2-0.5,0.3
							c-0.2,0.1-0.4,0.2-0.7,0.2C191.7,452.1,191.4,452.1,191.1,452.1z M191,447.3c-0.2,0-0.3,0-0.5,0.1s-0.3,0.1-0.4,0.3
							c-0.1,0.1-0.2,0.2-0.3,0.4c-0.1,0.2-0.1,0.3-0.2,0.5h2.4v-0.1c0-0.2,0-0.3-0.1-0.4s-0.1-0.3-0.2-0.4c-0.1-0.1-0.2-0.2-0.4-0.2
							C191.3,447.3,191.1,447.3,191,447.3z M195.2,443.7h3.2v7h1.7v1.2h-4.9v-1.2h1.7V445h-1.7V443.7z M211.9,450.4h-2.3l-0.5,1.6
							h-1.6l2.6-7.8h1.4l2.5,7.8h-1.6L211.9,450.4z M209.9,449.1h1.6l-0.8-2.9L209.9,449.1z M215,443.7h3.2v7h1.7v1.2H215v-1.2h1.7
							V445H215V443.7z M224.1,444.8v1.4h2.2v1.1h-2.2v2.5c0,0.2,0,0.4,0.1,0.5s0.1,0.3,0.2,0.3c0.1,0.1,0.2,0.1,0.3,0.2
							c0.1,0,0.3,0.1,0.4,0.1c0.1,0,0.2,0,0.4,0c0.1,0,0.2,0,0.3,0s0.2,0,0.3-0.1c0.1,0,0.2,0,0.2-0.1l0.1,1
							c-0.1,0.1-0.2,0.1-0.4,0.2c-0.1,0-0.3,0.1-0.4,0.1c-0.2,0-0.3,0.1-0.5,0.1s-0.3,0-0.5,0c-0.3,0-0.6,0-0.9-0.1
							c-0.3-0.1-0.5-0.2-0.7-0.4c-0.2-0.2-0.3-0.4-0.4-0.7c-0.1-0.3-0.2-0.6-0.2-1v-2.6h-1.3v-1.1h1.3v-1.4H224.1z M227.7,449
							c0-0.4,0.1-0.8,0.2-1.2c0.1-0.4,0.3-0.7,0.5-0.9c0.2-0.3,0.5-0.5,0.9-0.6c0.3-0.2,0.7-0.2,1.2-0.2c0.4,0,0.8,0.1,1.2,0.2
							c0.3,0.2,0.6,0.4,0.9,0.6c0.2,0.3,0.4,0.6,0.5,0.9c0.1,0.4,0.2,0.8,0.2,1.2v0.1c0,0.4-0.1,0.8-0.2,1.2
							c-0.1,0.4-0.3,0.7-0.5,0.9c-0.2,0.3-0.5,0.5-0.9,0.6c-0.3,0.1-0.7,0.2-1.2,0.2c-0.4,0-0.8-0.1-1.2-0.2
							c-0.3-0.1-0.6-0.4-0.9-0.6c-0.2-0.3-0.4-0.6-0.5-0.9c-0.1-0.4-0.2-0.8-0.2-1.2V449z M229.2,449.2c0,0.2,0,0.5,0.1,0.7
							c0,0.2,0.1,0.4,0.2,0.6c0.1,0.2,0.2,0.3,0.4,0.4s0.4,0.1,0.6,0.1c0.2,0,0.4,0,0.6-0.1c0.2-0.1,0.3-0.2,0.4-0.4
							c0.1-0.2,0.2-0.3,0.2-0.6c0-0.2,0.1-0.4,0.1-0.7V449c0-0.2,0-0.5-0.1-0.7c0-0.2-0.1-0.4-0.2-0.6c-0.1-0.2-0.2-0.3-0.4-0.4
							s-0.3-0.1-0.6-0.1c-0.2,0-0.4,0-0.6,0.1c-0.2,0.1-0.3,0.2-0.4,0.4c-0.1,0.2-0.2,0.3-0.2,0.6c0,0.2-0.1,0.4-0.1,0.7V449.2z"/>
						<path id="Rectangle-4_7_" class="st13" d="M302.5,423.5h152c1.7,0,3,1.3,3,3v18c0,1.7-1.3,3-3,3h-152c-1.7,0-3-1.3-3-3v-18
							C299.5,424.8,300.8,423.5,302.5,423.5z"/>
						<path id="Nuevos-Ministerios_7_" class="st14" d="M321.1,437c0-0.1,0-0.3-0.1-0.4s-0.1-0.2-0.2-0.3c-0.1-0.1-0.3-0.2-0.5-0.3
							c-0.2-0.1-0.4-0.2-0.7-0.2c-0.3-0.1-0.7-0.2-1-0.3c-0.3-0.1-0.6-0.3-0.8-0.5c-0.2-0.2-0.4-0.4-0.6-0.7
							c-0.1-0.3-0.2-0.6-0.2-0.9s0.1-0.6,0.2-0.9s0.3-0.5,0.6-0.7c0.2-0.2,0.5-0.3,0.9-0.4c0.3-0.1,0.7-0.2,1.1-0.2s0.8,0.1,1.1,0.2
							c0.3,0.1,0.6,0.3,0.9,0.5c0.2,0.2,0.4,0.5,0.6,0.8c0.1,0.3,0.2,0.6,0.2,1h-1.5c0-0.2,0-0.3-0.1-0.5c-0.1-0.1-0.1-0.3-0.2-0.4
							s-0.2-0.2-0.4-0.2c-0.2-0.1-0.4-0.1-0.6-0.1s-0.4,0-0.5,0.1c-0.2,0-0.3,0.1-0.4,0.2s-0.2,0.2-0.2,0.3
							c-0.1,0.1-0.1,0.2-0.1,0.4c0,0.1,0,0.3,0.1,0.4s0.2,0.2,0.3,0.3s0.3,0.2,0.5,0.3c0.2,0.1,0.4,0.2,0.7,0.2
							c0.4,0.1,0.7,0.2,1,0.4c0.3,0.2,0.6,0.3,0.8,0.5c0.2,0.2,0.4,0.4,0.5,0.7c0.1,0.3,0.2,0.6,0.2,0.9s-0.1,0.6-0.2,0.9
							s-0.3,0.5-0.6,0.7c-0.2,0.2-0.5,0.3-0.9,0.4c-0.3,0.1-0.7,0.1-1.1,0.1c-0.2,0-0.5,0-0.7-0.1c-0.2,0-0.5-0.1-0.7-0.2
							s-0.4-0.2-0.6-0.3c-0.2-0.1-0.4-0.3-0.5-0.5s-0.3-0.4-0.3-0.6s-0.1-0.5-0.1-0.8h1.5c0,0.2,0,0.4,0.1,0.6s0.2,0.3,0.3,0.4
							s0.3,0.2,0.5,0.2s0.4,0.1,0.6,0.1s0.4,0,0.5-0.1s0.3-0.1,0.4-0.2s0.2-0.2,0.2-0.3C321,437.2,321.1,437.1,321.1,437z
							 M324.1,433.2h3.2v4.6h1.6v1.2h-4.7v-1.2h1.7v-3.4h-1.7v-1.2H324.1z M325.6,431.7c0-0.1,0-0.2,0.1-0.3c0-0.1,0.1-0.2,0.2-0.3
							s0.2-0.1,0.3-0.2c0.1,0,0.2-0.1,0.4-0.1c0.3,0,0.5,0.1,0.6,0.2s0.2,0.3,0.2,0.6s-0.1,0.4-0.2,0.6s-0.4,0.2-0.6,0.2
							c-0.1,0-0.2,0-0.4-0.1c-0.1,0-0.2-0.1-0.3-0.2s-0.1-0.2-0.2-0.3C325.6,431.9,325.6,431.8,325.6,431.7z M333.1,439.1
							c-0.4,0-0.9-0.1-1.2-0.2c-0.4-0.1-0.7-0.3-0.9-0.6c-0.3-0.3-0.5-0.5-0.6-0.9c-0.1-0.3-0.2-0.7-0.2-1.1v-0.2
							c0-0.4,0.1-0.8,0.2-1.2s0.3-0.7,0.6-0.9c0.3-0.3,0.5-0.5,0.9-0.6c0.3-0.1,0.7-0.2,1.1-0.2s0.8,0.1,1.1,0.2
							c0.3,0.1,0.6,0.3,0.8,0.6c0.2,0.3,0.4,0.6,0.5,0.9s0.2,0.7,0.2,1.2v0.6h-3.9c0,0.2,0.1,0.4,0.2,0.5c0.1,0.2,0.2,0.3,0.3,0.4
							c0.1,0.1,0.3,0.2,0.5,0.3c0.2,0.1,0.4,0.1,0.6,0.1c0.1,0,0.3,0,0.4,0s0.3-0.1,0.4-0.1c0.1-0.1,0.3-0.1,0.4-0.2
							s0.2-0.2,0.3-0.3l0.7,0.8c-0.1,0.1-0.2,0.3-0.4,0.4c-0.1,0.1-0.3,0.2-0.5,0.3c-0.2,0.1-0.4,0.2-0.7,0.2
							S333.4,439.1,333.1,439.1z M332.9,434.3c-0.2,0-0.3,0-0.5,0.1s-0.3,0.1-0.4,0.3c-0.1,0.1-0.2,0.2-0.3,0.4
							c-0.1,0.2-0.1,0.3-0.2,0.5h2.4v-0.1c0-0.2,0-0.3-0.1-0.4s-0.1-0.3-0.2-0.4s-0.2-0.2-0.4-0.2S333.1,434.3,332.9,434.3z
							 M341,433.1c0.2,0,0.4,0,0.6,0s0.3,0.1,0.5,0.1l-0.2,1.5c-0.2,0-0.4-0.1-0.6-0.1s-0.4,0-0.6,0c-0.4,0-0.8,0.1-1,0.2
							c-0.3,0.2-0.4,0.4-0.6,0.7v3.5h-1.5v-5.8h1.4l0.1,1c0.2-0.3,0.5-0.6,0.8-0.8C340.3,433.2,340.7,433.1,341,433.1z M347.6,433.1
							c0.2,0,0.4,0,0.6,0s0.3,0.1,0.5,0.1l-0.2,1.5c-0.2,0-0.4-0.1-0.6-0.1s-0.4,0-0.6,0c-0.4,0-0.8,0.1-1,0.2
							c-0.3,0.2-0.4,0.4-0.6,0.7v3.5h-1.5v-5.8h1.4l0.1,1c0.2-0.3,0.5-0.6,0.8-0.8C346.9,433.2,347.3,433.1,347.6,433.1z M353.7,439
							c0-0.1-0.1-0.2-0.1-0.2c0-0.1,0-0.2-0.1-0.3c-0.1,0.1-0.2,0.2-0.3,0.3s-0.2,0.1-0.4,0.2c-0.1,0.1-0.3,0.1-0.4,0.1
							c-0.2,0-0.3,0.1-0.5,0.1c-0.3,0-0.6,0-0.8-0.1c-0.2-0.1-0.5-0.2-0.6-0.4c-0.2-0.2-0.3-0.3-0.4-0.6c-0.1-0.2-0.2-0.4-0.2-0.7
							c0-0.6,0.2-1.1,0.7-1.4s1.1-0.5,2-0.5h0.8v-0.3c0-0.3-0.1-0.5-0.3-0.7c-0.2-0.2-0.4-0.2-0.8-0.2c-0.3,0-0.5,0.1-0.7,0.2
							s-0.2,0.3-0.2,0.5h-1.5c0-0.2,0.1-0.5,0.2-0.7s0.3-0.4,0.5-0.6s0.5-0.3,0.8-0.4s0.6-0.1,1-0.1s0.7,0,1,0.1s0.6,0.2,0.8,0.4
							c0.2,0.2,0.4,0.4,0.5,0.6c0.1,0.3,0.2,0.6,0.2,0.9v2.5c0,0.3,0,0.6,0.1,0.8c0,0.2,0.1,0.4,0.2,0.5v0.1L353.7,439L353.7,439z
							 M352.3,438c0.2,0,0.3,0,0.4-0.1c0.1,0,0.2-0.1,0.3-0.1c0.1-0.1,0.2-0.1,0.3-0.2c0.1-0.1,0.1-0.1,0.2-0.2v-1h-0.8
							c-0.2,0-0.4,0-0.6,0.1c-0.2,0-0.3,0.1-0.4,0.2s-0.2,0.2-0.2,0.3c-0.1,0.1-0.1,0.2-0.1,0.4c0,0.2,0.1,0.4,0.2,0.5
							C351.8,437.9,352,438,352.3,438z M363.1,436.1c0-0.4,0.1-0.8,0.2-1.2s0.3-0.7,0.4-0.9c0.2-0.3,0.4-0.5,0.7-0.6
							c0.3-0.1,0.6-0.2,1-0.2c0.3,0,0.6,0.1,0.8,0.2c0.2,0.1,0.4,0.3,0.6,0.5v-3h1.5v8.3H367l-0.1-0.6c-0.2,0.2-0.4,0.4-0.6,0.5
							s-0.5,0.2-0.9,0.2s-0.7-0.1-1-0.2s-0.5-0.4-0.7-0.6c-0.2-0.3-0.3-0.6-0.4-0.9c-0.1-0.4-0.2-0.8-0.2-1.2L363.1,436.1
							L363.1,436.1z M364.6,436.2c0,0.2,0,0.5,0.1,0.7c0,0.2,0.1,0.4,0.2,0.5c0.1,0.2,0.2,0.3,0.4,0.4c0.1,0.1,0.3,0.1,0.5,0.1
							c0.3,0,0.5-0.1,0.6-0.2c0.2-0.1,0.3-0.3,0.4-0.5v-2.4c-0.1-0.2-0.2-0.4-0.4-0.5c-0.2-0.1-0.4-0.2-0.6-0.2s-0.4,0-0.5,0.1
							s-0.3,0.2-0.4,0.4c-0.1,0.2-0.2,0.3-0.2,0.6s-0.1,0.4-0.1,0.7V436.2z M372.7,439.1c-0.4,0-0.9-0.1-1.2-0.2
							c-0.4-0.1-0.7-0.3-0.9-0.6c-0.3-0.3-0.5-0.5-0.6-0.9c-0.1-0.3-0.2-0.7-0.2-1.1v-0.2c0-0.4,0.1-0.8,0.2-1.2s0.3-0.7,0.6-0.9
							c0.3-0.3,0.5-0.5,0.9-0.6c0.3-0.1,0.7-0.2,1.1-0.2s0.8,0.1,1.1,0.2c0.3,0.1,0.6,0.3,0.8,0.6c0.2,0.3,0.4,0.6,0.5,0.9
							s0.2,0.7,0.2,1.2v0.6h-3.9c0,0.2,0.1,0.4,0.2,0.5c0.1,0.2,0.2,0.3,0.3,0.4c0.1,0.1,0.3,0.2,0.5,0.3c0.2,0.1,0.4,0.1,0.6,0.1
							c0.1,0,0.3,0,0.4,0s0.3-0.1,0.4-0.1c0.1-0.1,0.3-0.1,0.4-0.2s0.2-0.2,0.3-0.3l0.7,0.8c-0.1,0.1-0.2,0.3-0.4,0.4
							c-0.1,0.1-0.3,0.2-0.5,0.3c-0.2,0.1-0.4,0.2-0.7,0.2C373.3,439.1,373,439.1,372.7,439.1z M372.5,434.3c-0.2,0-0.3,0-0.5,0.1
							c-0.1,0.1-0.3,0.1-0.4,0.3c-0.1,0.1-0.2,0.2-0.3,0.4c-0.1,0.2-0.1,0.3-0.2,0.5h2.4v-0.1c0-0.2,0-0.3-0.1-0.4s-0.1-0.3-0.2-0.4
							s-0.2-0.2-0.4-0.2C372.9,434.3,372.7,434.3,372.5,434.3z M388.4,438.1c-0.1,0.1-0.2,0.2-0.4,0.4c-0.2,0.1-0.4,0.2-0.6,0.3
							c-0.2,0.1-0.5,0.2-0.8,0.2c-0.3,0.1-0.6,0.1-0.9,0.1c-0.4,0-0.8-0.1-1.2-0.2c-0.4-0.2-0.7-0.4-0.9-0.7
							c-0.3-0.3-0.5-0.7-0.6-1.1s-0.2-0.9-0.2-1.5v-1.1c0-0.5,0.1-1,0.2-1.5s0.3-0.8,0.6-1.1c0.3-0.3,0.6-0.5,0.9-0.7
							s0.7-0.2,1.1-0.2s0.8,0.1,1.2,0.2c0.3,0.1,0.6,0.3,0.8,0.5c0.2,0.2,0.4,0.5,0.5,0.8s0.2,0.6,0.2,1h-1.5
							c-0.1-0.4-0.2-0.7-0.4-0.9c-0.2-0.2-0.5-0.3-0.9-0.3c-0.2,0-0.4,0-0.5,0.1c-0.2,0.1-0.3,0.2-0.4,0.4c-0.1,0.2-0.2,0.4-0.3,0.7
							c-0.1,0.3-0.1,0.6-0.1,1v1.1c0,0.7,0.1,1.3,0.4,1.7c0.2,0.4,0.6,0.6,1.1,0.6c0.1,0,0.2,0,0.3,0c0.1,0,0.2,0,0.3-0.1
							c0.1,0,0.2-0.1,0.3-0.1c0.1,0,0.1-0.1,0.2-0.1v-1.4h-1.3V435h2.8L388.4,438.1z M393.4,438.2c-0.2,0.3-0.4,0.5-0.7,0.7
							c-0.3,0.2-0.6,0.2-0.9,0.2s-0.6,0-0.8-0.1c-0.3-0.1-0.5-0.2-0.6-0.4c-0.2-0.2-0.3-0.5-0.4-0.8s-0.1-0.7-0.1-1.1v-3.4h1.5v3.4
							c0,0.2,0,0.4,0.1,0.6c0,0.2,0.1,0.3,0.2,0.4s0.2,0.2,0.3,0.2c0.1,0,0.3,0.1,0.4,0.1c0.3,0,0.5-0.1,0.7-0.2s0.3-0.3,0.4-0.5
							v-4.1h1.5v5.8h-1.4L393.4,438.2z M399.9,439c0-0.1-0.1-0.2-0.1-0.2c0-0.1,0-0.2-0.1-0.3c-0.1,0.1-0.2,0.2-0.3,0.3
							c-0.1,0.1-0.2,0.1-0.4,0.2c-0.1,0.1-0.3,0.1-0.4,0.1c-0.2,0-0.3,0.1-0.5,0.1c-0.3,0-0.6,0-0.8-0.1c-0.2-0.1-0.5-0.2-0.6-0.4
							c-0.2-0.2-0.3-0.3-0.4-0.6c-0.1-0.2-0.2-0.4-0.2-0.7c0-0.6,0.2-1.1,0.7-1.4s1.1-0.5,2-0.5h0.8v-0.3c0-0.3-0.1-0.5-0.3-0.7
							c-0.2-0.2-0.4-0.2-0.8-0.2c-0.3,0-0.5,0.1-0.7,0.2c-0.1,0.1-0.2,0.3-0.2,0.5h-1.5c0-0.2,0.1-0.5,0.2-0.7s0.3-0.4,0.5-0.6
							s0.5-0.3,0.8-0.4s0.6-0.1,1-0.1s0.7,0,1,0.1s0.6,0.2,0.8,0.4c0.2,0.2,0.4,0.4,0.5,0.6c0.1,0.3,0.2,0.6,0.2,0.9v2.5
							c0,0.3,0,0.6,0.1,0.8c0,0.2,0.1,0.4,0.2,0.5v0.1L399.9,439L399.9,439z M398.5,438c0.2,0,0.3,0,0.4-0.1s0.2-0.1,0.3-0.1
							c0.1-0.1,0.2-0.1,0.3-0.2s0.1-0.1,0.2-0.2v-1h-0.8c-0.2,0-0.4,0-0.6,0.1c-0.2,0-0.3,0.1-0.4,0.2s-0.2,0.2-0.2,0.3
							c-0.1,0.1-0.1,0.2-0.1,0.4c0,0.2,0.1,0.4,0.2,0.5C398,437.9,398.2,438,398.5,438z M402.7,436.1c0-0.4,0.1-0.8,0.2-1.2
							c0.1-0.4,0.3-0.7,0.4-0.9c0.2-0.3,0.4-0.5,0.7-0.6c0.3-0.1,0.6-0.2,1-0.2c0.3,0,0.6,0.1,0.8,0.2c0.2,0.1,0.4,0.3,0.6,0.5v-3
							h1.5v8.3h-1.3l-0.1-0.6c-0.2,0.2-0.4,0.4-0.6,0.5s-0.5,0.2-0.9,0.2s-0.7-0.1-1-0.2s-0.5-0.4-0.7-0.6c-0.2-0.3-0.3-0.6-0.4-0.9
							c-0.1-0.4-0.2-0.8-0.2-1.2V436.1z M404.2,436.2c0,0.2,0,0.5,0.1,0.7c0,0.2,0.1,0.4,0.2,0.5c0.1,0.2,0.2,0.3,0.4,0.4
							c0.1,0.1,0.3,0.1,0.5,0.1c0.3,0,0.5-0.1,0.6-0.2c0.2-0.1,0.3-0.3,0.4-0.5v-2.4c-0.1-0.2-0.2-0.4-0.4-0.5
							c-0.2-0.1-0.4-0.2-0.6-0.2s-0.4,0-0.5,0.1s-0.3,0.2-0.4,0.4c-0.1,0.2-0.2,0.3-0.2,0.6s-0.1,0.4-0.1,0.7V436.2z M413.1,439
							c0-0.1-0.1-0.2-0.1-0.2c0-0.1,0-0.2-0.1-0.3c-0.1,0.1-0.2,0.2-0.3,0.3s-0.2,0.1-0.4,0.2c-0.1,0.1-0.3,0.1-0.4,0.1
							c-0.2,0-0.3,0.1-0.5,0.1c-0.3,0-0.6,0-0.8-0.1c-0.2-0.1-0.5-0.2-0.6-0.4c-0.2-0.2-0.3-0.3-0.4-0.6c-0.1-0.2-0.2-0.4-0.2-0.7
							c0-0.6,0.2-1.1,0.7-1.4s1.1-0.5,2-0.5h0.8v-0.3c0-0.3-0.1-0.5-0.3-0.7c-0.2-0.2-0.4-0.2-0.8-0.2c-0.3,0-0.5,0.1-0.7,0.2
							s-0.2,0.3-0.2,0.5h-1.5c0-0.2,0.1-0.5,0.2-0.7s0.3-0.4,0.5-0.6s0.5-0.3,0.8-0.4s0.6-0.1,1-0.1s0.7,0,1,0.1s0.6,0.2,0.8,0.4
							c0.2,0.2,0.4,0.4,0.5,0.6c0.1,0.3,0.2,0.6,0.2,0.9v2.5c0,0.3,0,0.6,0.1,0.8c0,0.2,0.1,0.4,0.2,0.5v0.1L413.1,439L413.1,439z
							 M411.7,438c0.2,0,0.3,0,0.4-0.1c0.1,0,0.2-0.1,0.3-0.1c0.1-0.1,0.2-0.1,0.3-0.2c0.1-0.1,0.1-0.1,0.2-0.2v-1h-0.8
							c-0.2,0-0.4,0-0.6,0.1c-0.2,0-0.3,0.1-0.4,0.2s-0.2,0.2-0.2,0.3c-0.1,0.1-0.1,0.2-0.1,0.4c0,0.2,0.1,0.4,0.2,0.5
							C411.2,437.9,411.4,438,411.7,438z M416.4,430.7h3.2v7h1.7v1.2h-4.9v-1.2h1.7V432h-1.7L416.4,430.7L416.4,430.7z M426.4,438.2
							c-0.2,0.3-0.4,0.5-0.7,0.7c-0.3,0.2-0.6,0.2-0.9,0.2s-0.6,0-0.8-0.1c-0.3-0.1-0.5-0.2-0.6-0.4c-0.2-0.2-0.3-0.5-0.4-0.8
							s-0.1-0.7-0.1-1.1v-3.4h1.5v3.4c0,0.2,0,0.4,0.1,0.6c0,0.2,0.1,0.3,0.2,0.4s0.2,0.2,0.3,0.2c0.1,0,0.3,0.1,0.4,0.1
							c0.3,0,0.5-0.1,0.7-0.2s0.3-0.3,0.4-0.5v-4.1h1.5v5.8h-1.4L426.4,438.2z M434.5,436.1c0,0.4,0,0.8-0.1,1.2
							c-0.1,0.4-0.2,0.7-0.4,0.9c-0.2,0.3-0.4,0.5-0.7,0.6c-0.3,0.2-0.6,0.2-1,0.2c-0.3,0-0.6-0.1-0.8-0.2c-0.2-0.1-0.4-0.3-0.6-0.5
							v2.7h-1.5v-8h1.4l0.1,0.6c0.2-0.2,0.4-0.4,0.6-0.5s0.5-0.2,0.9-0.2s0.7,0.1,1,0.2s0.5,0.3,0.7,0.6s0.3,0.6,0.4,0.9
							c0.1,0.4,0.1,0.8,0.1,1.2v0.3H434.5z M433,436c0-0.2,0-0.5-0.1-0.7c0-0.2-0.1-0.4-0.2-0.6s-0.2-0.3-0.4-0.4
							c-0.1-0.1-0.3-0.1-0.5-0.1c-0.3,0-0.5,0.1-0.6,0.2c-0.2,0.1-0.3,0.2-0.4,0.4v2.4c0.1,0.2,0.2,0.3,0.4,0.4
							c0.2,0.1,0.4,0.2,0.7,0.2c0.2,0,0.4,0,0.5-0.1s0.3-0.2,0.4-0.4c0.1-0.2,0.2-0.3,0.2-0.6s0.1-0.4,0.1-0.7v0H433z M438.7,439.1
							c-0.4,0-0.9-0.1-1.2-0.2c-0.4-0.1-0.7-0.3-0.9-0.6c-0.3-0.3-0.5-0.5-0.6-0.9c-0.1-0.3-0.2-0.7-0.2-1.1v-0.2
							c0-0.4,0.1-0.8,0.2-1.2c0.1-0.4,0.3-0.7,0.6-0.9c0.3-0.3,0.5-0.5,0.9-0.6c0.3-0.1,0.7-0.2,1.1-0.2s0.8,0.1,1.1,0.2
							c0.3,0.1,0.6,0.3,0.8,0.6c0.2,0.3,0.4,0.6,0.5,0.9s0.2,0.7,0.2,1.2v0.6h-3.9c0,0.2,0.1,0.4,0.2,0.5c0.1,0.2,0.2,0.3,0.3,0.4
							c0.1,0.1,0.3,0.2,0.5,0.3c0.2,0.1,0.4,0.1,0.6,0.1c0.1,0,0.3,0,0.4,0s0.3-0.1,0.4-0.1c0.1-0.1,0.3-0.1,0.4-0.2
							s0.2-0.2,0.3-0.3l0.7,0.8c-0.1,0.1-0.2,0.3-0.4,0.4c-0.1,0.1-0.3,0.2-0.5,0.3c-0.2,0.1-0.4,0.2-0.7,0.2
							C439.3,439.1,439,439.1,438.7,439.1z M438.5,434.3c-0.2,0-0.3,0-0.5,0.1c-0.1,0.1-0.3,0.1-0.4,0.3c-0.1,0.1-0.2,0.2-0.3,0.4
							c-0.1,0.2-0.1,0.3-0.2,0.5h2.4v-0.1c0-0.2,0-0.3-0.1-0.4s-0.1-0.3-0.2-0.4s-0.2-0.2-0.4-0.2S438.7,434.3,438.5,434.3z"/>
						<path id="Rectangle-4_8_" class="st13" d="M404.5,310.5h139c1.7,0,3,1.3,3,3v18c0,1.7-1.3,3-3,3h-139c-1.7,0-3-1.3-3-3v-18
							C401.5,311.8,402.8,310.5,404.5,310.5z"/>
						<path id="Nuevos-Ministerios_8_" class="st14" d="M420.7,323.1v2.9h-1.5v-7.8h2.7c0.4,0,0.8,0.1,1.2,0.2s0.6,0.3,0.9,0.5
							s0.4,0.5,0.6,0.8c0.1,0.3,0.2,0.6,0.2,1s-0.1,0.7-0.2,1s-0.3,0.6-0.6,0.8s-0.5,0.4-0.9,0.5s-0.7,0.2-1.2,0.2h-1.2V323.1z
							 M420.7,321.9h1.2c0.2,0,0.4,0,0.6-0.1s0.3-0.2,0.4-0.3c0.1-0.1,0.2-0.2,0.2-0.4c0.1-0.1,0.1-0.3,0.1-0.5s0-0.4-0.1-0.5
							c-0.1-0.2-0.1-0.3-0.2-0.4s-0.2-0.2-0.4-0.3c-0.2-0.1-0.3-0.1-0.6-0.1h-1.2V321.9z M429.4,325.2c-0.2,0.3-0.4,0.5-0.7,0.7
							c-0.3,0.2-0.6,0.2-0.9,0.2s-0.6,0-0.8-0.1c-0.3-0.1-0.5-0.2-0.6-0.4c-0.2-0.2-0.3-0.5-0.4-0.8s-0.1-0.7-0.1-1.1v-3.4h1.5v3.4
							c0,0.2,0,0.4,0.1,0.6c0,0.2,0.1,0.3,0.2,0.4s0.2,0.2,0.3,0.2c0.1,0,0.3,0.1,0.4,0.1c0.3,0,0.5-0.1,0.7-0.2s0.3-0.3,0.4-0.5
							v-4.1h1.5v5.8h-1.4L429.4,325.2z M435.2,326.1c-0.4,0-0.9-0.1-1.2-0.2s-0.7-0.3-0.9-0.6c-0.3-0.3-0.5-0.5-0.6-0.9
							c-0.1-0.3-0.2-0.7-0.2-1.1v-0.2c0-0.4,0.1-0.8,0.2-1.2s0.3-0.7,0.6-0.9c0.3-0.3,0.5-0.5,0.9-0.6s0.7-0.2,1.1-0.2
							s0.8,0.1,1.1,0.2s0.6,0.3,0.8,0.6c0.2,0.3,0.4,0.6,0.5,0.9s0.2,0.7,0.2,1.2v0.6h-3.9c0,0.2,0.1,0.4,0.2,0.5
							c0.1,0.2,0.2,0.3,0.3,0.4c0.1,0.1,0.3,0.2,0.5,0.3c0.2,0.1,0.4,0.1,0.6,0.1c0.1,0,0.3,0,0.4,0s0.3-0.1,0.4-0.1
							c0.1-0.1,0.3-0.1,0.4-0.2s0.2-0.2,0.3-0.3l0.7,0.8c-0.1,0.1-0.2,0.3-0.4,0.4c-0.1,0.1-0.3,0.2-0.5,0.3
							c-0.2,0.1-0.4,0.2-0.7,0.2S435.4,326.1,435.2,326.1z M435,321.3c-0.2,0-0.3,0-0.5,0.1s-0.3,0.1-0.4,0.3
							c-0.1,0.1-0.2,0.2-0.3,0.4c-0.1,0.2-0.1,0.3-0.2,0.5h2.4v-0.1c0-0.2,0-0.3-0.1-0.4s-0.1-0.3-0.2-0.4s-0.2-0.2-0.4-0.2
							S435.2,321.3,435,321.3z M443.1,320.1c0.2,0,0.4,0,0.6,0s0.3,0.1,0.5,0.1l-0.2,1.5c-0.2,0-0.4-0.1-0.6-0.1s-0.4,0-0.6,0
							c-0.4,0-0.8,0.1-1,0.2s-0.4,0.4-0.6,0.7v3.5h-1.5v-5.8h1.4l0.1,1c0.2-0.3,0.5-0.6,0.8-0.8
							C442.4,320.2,442.7,320.1,443.1,320.1z M448.3,318.8v1.4h2.2v1.1h-2.2v2.5c0,0.2,0,0.4,0.1,0.5s0.1,0.3,0.2,0.3
							c0.1,0.1,0.2,0.1,0.3,0.2c0.1,0,0.3,0.1,0.4,0.1s0.2,0,0.4,0c0.1,0,0.2,0,0.3,0c0.1,0,0.2,0,0.3-0.1c0.1,0,0.2,0,0.2-0.1
							l0.1,1c-0.1,0.1-0.2,0.1-0.4,0.2s-0.3,0.1-0.4,0.1c-0.2,0-0.3,0.1-0.5,0.1s-0.3,0-0.5,0c-0.3,0-0.6,0-0.9-0.1
							s-0.5-0.2-0.7-0.4c-0.2-0.2-0.3-0.4-0.4-0.7c-0.1-0.3-0.2-0.6-0.2-1v-2.6h-1.3v-1.1h1.3v-1.4H448.3z M455.8,326
							c0-0.1-0.1-0.2-0.1-0.2c0-0.1,0-0.2-0.1-0.3c-0.1,0.1-0.2,0.2-0.3,0.3s-0.2,0.1-0.4,0.2c-0.1,0.1-0.3,0.1-0.4,0.1
							c-0.2,0-0.3,0.1-0.5,0.1c-0.3,0-0.6,0-0.8-0.1c-0.2-0.1-0.5-0.2-0.6-0.4c-0.2-0.2-0.3-0.3-0.4-0.6c-0.1-0.2-0.2-0.4-0.2-0.7
							c0-0.6,0.2-1.1,0.7-1.4s1.1-0.5,2-0.5h0.8v-0.3c0-0.3-0.1-0.5-0.3-0.7s-0.4-0.2-0.8-0.2c-0.3,0-0.5,0.1-0.7,0.2
							s-0.2,0.3-0.2,0.5H452c0-0.2,0.1-0.5,0.2-0.7s0.3-0.4,0.5-0.6s0.5-0.3,0.8-0.4s0.6-0.1,1-0.1s0.7,0,1,0.1s0.6,0.2,0.8,0.4
							c0.2,0.2,0.4,0.4,0.5,0.6c0.1,0.3,0.2,0.6,0.2,0.9v2.5c0,0.3,0,0.6,0.1,0.8c0,0.2,0.1,0.4,0.2,0.5v0.1L455.8,326L455.8,326z
							 M454.3,325c0.2,0,0.3,0,0.4-0.1s0.2-0.1,0.3-0.1c0.1-0.1,0.2-0.1,0.3-0.2s0.1-0.1,0.2-0.2v-1h-0.8c-0.2,0-0.4,0-0.6,0.1
							c-0.2,0-0.3,0.1-0.4,0.2s-0.2,0.2-0.2,0.3c-0.1,0.1-0.1,0.2-0.1,0.4c0,0.2,0.1,0.4,0.2,0.5C453.8,324.9,454.1,325,454.3,325z
							 M465.2,323.1c0-0.4,0.1-0.8,0.2-1.2s0.3-0.7,0.4-0.9c0.2-0.3,0.4-0.5,0.7-0.6c0.3-0.1,0.6-0.2,1-0.2c0.3,0,0.6,0.1,0.8,0.2
							s0.4,0.3,0.6,0.5v-3h1.5v8.3H469l-0.1-0.6c-0.2,0.2-0.4,0.4-0.6,0.5s-0.5,0.2-0.9,0.2s-0.7-0.1-1-0.2s-0.5-0.4-0.7-0.6
							c-0.2-0.3-0.3-0.6-0.4-0.9c-0.1-0.4-0.2-0.8-0.2-1.2v-0.3H465.2z M466.7,323.2c0,0.2,0,0.5,0.1,0.7c0,0.2,0.1,0.4,0.2,0.5
							c0.1,0.2,0.2,0.3,0.4,0.4c0.1,0.1,0.3,0.1,0.5,0.1c0.3,0,0.5-0.1,0.6-0.2c0.2-0.1,0.3-0.3,0.4-0.5v-2.4
							c-0.1-0.2-0.2-0.4-0.4-0.5c-0.2-0.1-0.4-0.2-0.6-0.2s-0.4,0-0.5,0.1s-0.3,0.2-0.4,0.4c-0.1,0.2-0.2,0.3-0.2,0.6
							s-0.1,0.4-0.1,0.7V323.2z M474.8,326.1c-0.4,0-0.9-0.1-1.2-0.2s-0.7-0.3-0.9-0.6c-0.3-0.3-0.5-0.5-0.6-0.9
							c-0.1-0.3-0.2-0.7-0.2-1.1v-0.2c0-0.4,0.1-0.8,0.2-1.2s0.3-0.7,0.6-0.9c0.3-0.3,0.5-0.5,0.9-0.6s0.7-0.2,1.1-0.2
							s0.8,0.1,1.1,0.2s0.6,0.3,0.8,0.6c0.2,0.3,0.4,0.6,0.5,0.9s0.2,0.7,0.2,1.2v0.6h-3.9c0,0.2,0.1,0.4,0.2,0.5
							c0.1,0.2,0.2,0.3,0.3,0.4c0.1,0.1,0.3,0.2,0.5,0.3c0.2,0.1,0.4,0.1,0.6,0.1c0.1,0,0.3,0,0.4,0s0.3-0.1,0.4-0.1
							c0.1-0.1,0.3-0.1,0.4-0.2s0.2-0.2,0.3-0.3l0.7,0.8c-0.1,0.1-0.2,0.3-0.4,0.4c-0.1,0.1-0.3,0.2-0.5,0.3
							c-0.2,0.1-0.4,0.2-0.7,0.2S475,326.1,474.8,326.1z M474.6,321.3c-0.2,0-0.3,0-0.5,0.1s-0.3,0.1-0.4,0.3
							c-0.1,0.1-0.2,0.2-0.3,0.4c-0.1,0.2-0.1,0.3-0.2,0.5h2.4v-0.1c0-0.2,0-0.3-0.1-0.4s-0.1-0.3-0.2-0.4s-0.2-0.2-0.4-0.2
							S474.8,321.3,474.6,321.3z M488.9,324.4h-2.3l-0.5,1.6h-1.6l2.6-7.8h1.4l2.5,7.8h-1.6L488.9,324.4z M487,323.1h1.6l-0.8-2.9
							L487,323.1z M495.9,320.1c0.2,0,0.4,0,0.6,0s0.3,0.1,0.5,0.1l-0.2,1.5c-0.2,0-0.4-0.1-0.6-0.1s-0.4,0-0.6,0
							c-0.4,0-0.8,0.1-1,0.2s-0.4,0.4-0.6,0.7v3.5h-1.5v-5.8h1.4l0.1,1c0.2-0.3,0.5-0.6,0.8-0.8
							C495.2,320.2,495.5,320.1,495.9,320.1z M498.2,323.1c0-0.4,0.1-0.8,0.2-1.2c0.1-0.4,0.3-0.7,0.5-0.9s0.5-0.5,0.7-0.6
							s0.6-0.2,1-0.2c0.3,0,0.6,0.1,0.9,0.2c0.2,0.1,0.5,0.3,0.6,0.5l0.1-0.6h1.4v5.6c0,0.4-0.1,0.7-0.2,1.1s-0.3,0.6-0.6,0.8
							s-0.5,0.4-0.9,0.5s-0.7,0.2-1.1,0.2c-0.2,0-0.4,0-0.6-0.1c-0.2,0-0.4-0.1-0.6-0.2s-0.4-0.2-0.6-0.3c-0.2-0.1-0.3-0.3-0.5-0.4
							l0.7-0.9c0.2,0.2,0.4,0.4,0.6,0.5s0.5,0.2,0.8,0.2c0.4,0,0.7-0.1,1-0.3c0.2-0.2,0.4-0.5,0.4-1v-0.3c-0.2,0.2-0.4,0.3-0.6,0.5
							c-0.2,0.1-0.5,0.2-0.8,0.2c-0.4,0-0.7-0.1-1-0.2s-0.5-0.4-0.7-0.6s-0.4-0.6-0.5-0.9c-0.1-0.4-0.2-0.8-0.2-1.2L498.2,323.1
							L498.2,323.1z M499.7,323.2c0,0.2,0,0.5,0.1,0.7s0.1,0.4,0.2,0.5c0.1,0.2,0.2,0.3,0.4,0.4c0.2,0.1,0.3,0.1,0.5,0.1
							c0.3,0,0.5-0.1,0.6-0.2c0.2-0.1,0.3-0.2,0.4-0.4v-2.5c-0.1-0.2-0.2-0.3-0.4-0.4c-0.2-0.1-0.4-0.1-0.6-0.1s-0.4,0-0.5,0.1
							c-0.2,0.1-0.3,0.2-0.4,0.4s-0.2,0.3-0.2,0.6C499.7,322.6,499.7,322.8,499.7,323.2L499.7,323.2z M508.6,326
							c0-0.1-0.1-0.2-0.1-0.2c0-0.1,0-0.2-0.1-0.3c-0.1,0.1-0.2,0.2-0.3,0.3s-0.2,0.1-0.4,0.2c-0.1,0.1-0.3,0.1-0.4,0.1
							c-0.2,0-0.3,0.1-0.5,0.1c-0.3,0-0.6,0-0.8-0.1c-0.2-0.1-0.5-0.2-0.6-0.4c-0.2-0.2-0.3-0.3-0.4-0.6c-0.1-0.2-0.2-0.4-0.2-0.7
							c0-0.6,0.2-1.1,0.7-1.4s1.1-0.5,2-0.5h0.8v-0.3c0-0.3-0.1-0.5-0.3-0.7s-0.4-0.2-0.8-0.2c-0.3,0-0.5,0.1-0.7,0.2
							s-0.2,0.3-0.2,0.5h-1.5c0-0.2,0.1-0.5,0.2-0.7s0.3-0.4,0.5-0.6s0.5-0.3,0.8-0.4s0.6-0.1,1-0.1s0.7,0,1,0.1s0.6,0.2,0.8,0.4
							c0.2,0.2,0.4,0.4,0.5,0.6c0.1,0.3,0.2,0.6,0.2,0.9v2.5c0,0.3,0,0.6,0.1,0.8c0,0.2,0.1,0.4,0.2,0.5v0.1L508.6,326L508.6,326z
							 M507.1,325c0.2,0,0.3,0,0.4-0.1s0.2-0.1,0.3-0.1c0.1-0.1,0.2-0.1,0.3-0.2s0.1-0.1,0.2-0.2v-1h-0.8c-0.2,0-0.4,0-0.6,0.1
							c-0.2,0-0.3,0.1-0.4,0.2s-0.2,0.2-0.2,0.3c-0.1,0.1-0.1,0.2-0.1,0.4c0,0.2,0.1,0.4,0.2,0.5C506.6,324.9,506.9,325,507.1,325z
							 M512.9,320.2l0.1,0.8c0.2-0.3,0.5-0.5,0.8-0.7s0.6-0.2,1-0.2c0.3,0,0.6,0,0.8,0.1s0.5,0.2,0.6,0.4s0.3,0.4,0.4,0.7
							c0.1,0.3,0.1,0.7,0.1,1.1v3.6h-1.5v-3.6c0-0.2,0-0.4-0.1-0.6c-0.1-0.1-0.1-0.3-0.2-0.4s-0.2-0.1-0.3-0.2
							c-0.1,0-0.3-0.1-0.5-0.1c-0.3,0-0.5,0.1-0.6,0.2c-0.2,0.1-0.3,0.2-0.4,0.4v4.1h-1.5V320h1.3V320.2z M518,323.1
							c0-0.4,0.1-0.8,0.2-1.2s0.3-0.7,0.4-0.9c0.2-0.3,0.4-0.5,0.7-0.6s0.6-0.2,1-0.2c0.3,0,0.6,0.1,0.8,0.2s0.4,0.3,0.6,0.5v-3h1.5
							v8.3h-1.3l-0.1-0.6c-0.2,0.2-0.4,0.4-0.6,0.5s-0.5,0.2-0.9,0.2s-0.7-0.1-1-0.2s-0.5-0.4-0.7-0.6c-0.2-0.3-0.3-0.6-0.4-0.9
							c-0.1-0.4-0.2-0.8-0.2-1.2V323.1z M519.5,323.2c0,0.2,0,0.5,0.1,0.7c0,0.2,0.1,0.4,0.2,0.5c0.1,0.2,0.2,0.3,0.4,0.4
							c0.1,0.1,0.3,0.1,0.5,0.1c0.3,0,0.5-0.1,0.6-0.2c0.2-0.1,0.3-0.3,0.4-0.5v-2.4c-0.1-0.2-0.2-0.4-0.4-0.5s-0.4-0.2-0.6-0.2
							c-0.2,0-0.4,0-0.5,0.1s-0.3,0.2-0.4,0.4c-0.1,0.2-0.2,0.3-0.2,0.6s-0.1,0.4-0.1,0.7V323.2z M528.4,326c0-0.1-0.1-0.2-0.1-0.2
							c0-0.1,0-0.2-0.1-0.3c-0.1,0.1-0.2,0.2-0.3,0.3s-0.2,0.1-0.4,0.2c-0.1,0.1-0.3,0.1-0.4,0.1c-0.2,0-0.3,0.1-0.5,0.1
							c-0.3,0-0.6,0-0.8-0.1s-0.5-0.2-0.6-0.4c-0.2-0.2-0.3-0.3-0.4-0.6c-0.1-0.2-0.2-0.4-0.2-0.7c0-0.6,0.2-1.1,0.7-1.4
							s1.1-0.5,2-0.5h0.8v-0.3c0-0.3-0.1-0.5-0.3-0.7s-0.4-0.2-0.8-0.2c-0.3,0-0.5,0.1-0.7,0.2s-0.2,0.3-0.2,0.5h-1.5
							c0-0.2,0.1-0.5,0.2-0.7c0.1-0.2,0.3-0.4,0.5-0.6s0.5-0.3,0.8-0.4s0.6-0.1,1-0.1s0.7,0,1,0.1s0.6,0.2,0.8,0.4
							c0.2,0.2,0.4,0.4,0.5,0.6c0.1,0.3,0.2,0.6,0.2,0.9v2.5c0,0.3,0,0.6,0.1,0.8c0,0.2,0.1,0.4,0.2,0.5v0.1L528.4,326L528.4,326z
							 M527,325c0.2,0,0.3,0,0.4-0.1s0.2-0.1,0.3-0.1c0.1-0.1,0.2-0.1,0.3-0.2s0.1-0.1,0.2-0.2v-1h-0.8c-0.2,0-0.4,0-0.6,0.1
							c-0.2,0-0.3,0.1-0.4,0.2c-0.1,0.1-0.2,0.2-0.2,0.3c-0.1,0.1-0.1,0.2-0.1,0.4c0,0.2,0.1,0.4,0.2,0.5
							C526.5,324.9,526.7,325,527,325z"/>
						<path id="Rectangle-4_9_" class="st13" d="M88.5,157.5h73c1.7,0,3,1.3,3,3v18c0,1.7-1.3,3-3,3h-73c-1.7,0-3-1.3-3-3v-18
							C85.5,158.8,86.8,157.5,88.5,157.5z"/>
						<path id="Nuevos-Ministerios_9_" class="st14" d="M104.7,165.2l0.7,2.9l0.8-2.9h1.9v7.8h-1.4v-2.3l0.1-3.7l-1,3.4h-0.7
							l-0.9-3.2l0.1,3.5v2.3h-1.4v-7.8H104.7z M109.3,170c0-0.4,0.1-0.8,0.2-1.2s0.3-0.7,0.5-0.9c0.2-0.3,0.5-0.5,0.9-0.6
							c0.3-0.2,0.7-0.2,1.2-0.2s0.8,0.1,1.2,0.2s0.6,0.4,0.9,0.6c0.2,0.3,0.4,0.6,0.5,0.9c0.1,0.4,0.2,0.8,0.2,1.2v0.1
							c0,0.4-0.1,0.8-0.2,1.2s-0.3,0.7-0.5,0.9c-0.2,0.3-0.5,0.5-0.9,0.6c-0.3,0.1-0.7,0.2-1.2,0.2c-0.4,0-0.8-0.1-1.2-0.2
							c-0.3-0.1-0.6-0.4-0.9-0.6c-0.2-0.3-0.4-0.6-0.5-0.9c-0.1-0.4-0.2-0.8-0.2-1.2V170z M110.8,170.2c0,0.2,0,0.5,0.1,0.7
							c0,0.2,0.1,0.4,0.2,0.6c0.1,0.2,0.2,0.3,0.4,0.4c0.2,0.1,0.4,0.1,0.6,0.1s0.4,0,0.6-0.1s0.3-0.2,0.4-0.4s0.2-0.3,0.2-0.6
							c0-0.2,0.1-0.4,0.1-0.7V170c0-0.2,0-0.5-0.1-0.7c0-0.2-0.1-0.4-0.2-0.6c-0.1-0.2-0.2-0.3-0.4-0.4c-0.2-0.1-0.3-0.1-0.6-0.1
							c-0.2,0-0.4,0-0.6,0.1s-0.3,0.2-0.4,0.4s-0.2,0.3-0.2,0.6c0,0.2-0.1,0.4-0.1,0.7V170.2z M117.5,167.2l0.1,0.8
							c0.2-0.3,0.5-0.5,0.8-0.7s0.6-0.2,1-0.2c0.3,0,0.6,0,0.8,0.1c0.2,0.1,0.5,0.2,0.6,0.4s0.3,0.4,0.4,0.7s0.1,0.7,0.1,1.1v3.6
							h-1.5v-3.6c0-0.2,0-0.4-0.1-0.6c-0.1-0.1-0.1-0.3-0.2-0.4s-0.2-0.1-0.3-0.2c-0.1,0-0.3-0.1-0.5-0.1c-0.3,0-0.5,0.1-0.6,0.2
							c-0.2,0.1-0.3,0.2-0.4,0.4v4.1h-1.5V167h1.3V167.2z M125.3,171.9c0.1,0,0.3,0,0.4-0.1c0.1,0,0.2-0.1,0.3-0.2
							c0.1-0.1,0.2-0.2,0.2-0.3c0.1-0.1,0.1-0.2,0.1-0.4h1.4c0,0.3-0.1,0.6-0.2,0.8c-0.1,0.3-0.3,0.5-0.5,0.7s-0.5,0.3-0.8,0.4
							c-0.3,0.1-0.6,0.2-0.9,0.2c-0.5,0-0.8-0.1-1.2-0.2s-0.6-0.4-0.9-0.6c-0.2-0.3-0.4-0.6-0.5-0.9c-0.1-0.4-0.2-0.7-0.2-1.1V170
							c0-0.4,0.1-0.8,0.2-1.1c0.1-0.4,0.3-0.7,0.5-0.9c0.2-0.3,0.5-0.5,0.9-0.6c0.3-0.2,0.7-0.2,1.2-0.2c0.4,0,0.7,0.1,1,0.2
							c0.3,0.1,0.6,0.3,0.8,0.5s0.4,0.4,0.5,0.7s0.2,0.6,0.2,0.9h-1.4c0-0.1,0-0.3-0.1-0.4c-0.1-0.1-0.1-0.2-0.2-0.3
							s-0.2-0.2-0.3-0.2c-0.1-0.1-0.3-0.1-0.4-0.1c-0.2,0-0.4,0-0.6,0.1s-0.3,0.2-0.4,0.4s-0.2,0.3-0.2,0.6s-0.1,0.4-0.1,0.6v0.2
							c0,0.2,0,0.4,0.1,0.7c0,0.2,0.1,0.4,0.2,0.6s0.2,0.3,0.4,0.4S125.1,171.9,125.3,171.9z M129.6,164.7h3.2v7h1.7v1.2h-4.9v-1.2
							h1.7V166h-1.7V164.7z M135.7,170c0-0.4,0.1-0.8,0.2-1.2c0.1-0.4,0.3-0.7,0.5-0.9c0.2-0.3,0.5-0.5,0.9-0.6s0.7-0.2,1.2-0.2
							c0.4,0,0.8,0.1,1.2,0.2c0.3,0.2,0.6,0.4,0.9,0.6c0.2,0.3,0.4,0.6,0.5,0.9c0.1,0.4,0.2,0.8,0.2,1.2v0.1c0,0.4-0.1,0.8-0.2,1.2
							c-0.1,0.4-0.3,0.7-0.5,0.9c-0.2,0.3-0.5,0.5-0.9,0.6c-0.3,0.1-0.7,0.2-1.2,0.2c-0.4,0-0.8-0.1-1.2-0.2
							c-0.3-0.1-0.6-0.4-0.9-0.6c-0.2-0.3-0.4-0.6-0.5-0.9c-0.1-0.4-0.2-0.8-0.2-1.2V170z M137.2,170.2c0,0.2,0,0.5,0.1,0.7
							c0,0.2,0.1,0.4,0.2,0.6c0.1,0.2,0.2,0.3,0.4,0.4c0.2,0.1,0.4,0.1,0.6,0.1c0.2,0,0.4,0,0.6-0.1c0.2-0.1,0.3-0.2,0.4-0.4
							c0.1-0.2,0.2-0.3,0.2-0.6c0-0.2,0.1-0.4,0.1-0.7V170c0-0.2,0-0.5-0.1-0.7c0-0.2-0.1-0.4-0.2-0.6c-0.1-0.2-0.2-0.3-0.4-0.4
							c-0.2-0.1-0.3-0.1-0.6-0.1c-0.2,0-0.4,0-0.6,0.1c-0.2,0.1-0.3,0.2-0.4,0.4c-0.1,0.2-0.2,0.3-0.2,0.6c0,0.2-0.1,0.4-0.1,0.7
							V170.2z M146.2,173c0-0.1-0.1-0.2-0.1-0.2c0-0.1,0-0.2-0.1-0.3c-0.1,0.1-0.2,0.2-0.3,0.3s-0.2,0.1-0.4,0.2
							c-0.1,0.1-0.3,0.1-0.4,0.1c-0.2,0-0.3,0.1-0.5,0.1c-0.3,0-0.6,0-0.8-0.1s-0.5-0.2-0.6-0.4c-0.2-0.2-0.3-0.3-0.4-0.6
							c-0.1-0.2-0.2-0.4-0.2-0.7c0-0.6,0.2-1.1,0.7-1.4s1.1-0.5,2-0.5h0.8v-0.3c0-0.3-0.1-0.5-0.3-0.7s-0.4-0.2-0.8-0.2
							c-0.3,0-0.5,0.1-0.7,0.2s-0.2,0.3-0.2,0.5h-1.5c0-0.2,0.1-0.5,0.2-0.7c0.1-0.2,0.3-0.4,0.5-0.6s0.5-0.3,0.8-0.4
							c0.3-0.1,0.6-0.1,1-0.1s0.7,0,1,0.1s0.6,0.2,0.8,0.4s0.4,0.4,0.5,0.6c0.1,0.3,0.2,0.6,0.2,0.9v2.5c0,0.3,0,0.6,0.1,0.8
							c0,0.2,0.1,0.4,0.2,0.5v0.1h-1.5V173z M144.7,172c0.2,0,0.3,0,0.4-0.1s0.2-0.1,0.3-0.1c0.1-0.1,0.2-0.1,0.3-0.2
							s0.1-0.1,0.2-0.2v-1h-0.8c-0.2,0-0.4,0-0.6,0.1c-0.2,0-0.3,0.1-0.4,0.2c-0.1,0.1-0.2,0.2-0.2,0.3c-0.1,0.1-0.1,0.2-0.1,0.4
							s0.1,0.4,0.2,0.5C144.2,171.9,144.4,172,144.7,172z"/>
						<path id="Rectangle-4_10_" class="st13" d="M196.5,82.5h145c1.7,0,3,1.3,3,3v18c0,1.7-1.3,3-3,3h-145c-1.7,0-3-1.3-3-3v-18
							C193.5,83.8,194.8,82.5,196.5,82.5z"/>
						<path id="Nuevos-Ministerios_10_" class="st14" d="M219,98h-1.5l-2.2-5v5h-1.5v-7.8h1.5l2.2,5v-5h1.5V98z M224.2,97.2
							c-0.2,0.3-0.4,0.5-0.7,0.7s-0.6,0.2-0.9,0.2c-0.3,0-0.6,0-0.8-0.1s-0.5-0.2-0.6-0.4s-0.3-0.5-0.4-0.8s-0.1-0.7-0.1-1.1v-3.4
							h1.5v3.4c0,0.2,0,0.4,0.1,0.6s0.1,0.3,0.2,0.4s0.2,0.2,0.3,0.2s0.3,0.1,0.4,0.1c0.3,0,0.5-0.1,0.7-0.2s0.3-0.3,0.4-0.5v-4.1
							h1.5V98h-1.4L224.2,97.2z M229.9,98.1c-0.4,0-0.9-0.1-1.2-0.2s-0.7-0.3-0.9-0.6s-0.5-0.5-0.6-0.9s-0.2-0.7-0.2-1.1v-0.2
							c0-0.4,0.1-0.8,0.2-1.2s0.3-0.7,0.6-0.9s0.5-0.5,0.9-0.6s0.7-0.2,1.1-0.2c0.4,0,0.8,0.1,1.1,0.2s0.6,0.3,0.8,0.6
							c0.2,0.3,0.4,0.6,0.5,0.9s0.2,0.7,0.2,1.2v0.6h-3.9c0,0.2,0.1,0.4,0.2,0.5s0.2,0.3,0.3,0.4s0.3,0.2,0.5,0.3s0.4,0.1,0.6,0.1
							c0.1,0,0.3,0,0.4,0s0.3-0.1,0.4-0.1s0.3-0.1,0.4-0.2s0.2-0.2,0.3-0.3l0.7,0.8c-0.1,0.1-0.2,0.3-0.4,0.4s-0.3,0.2-0.5,0.3
							s-0.4,0.2-0.7,0.2S230.2,98.1,229.9,98.1z M229.7,93.3c-0.2,0-0.3,0-0.5,0.1s-0.3,0.1-0.4,0.3s-0.2,0.2-0.3,0.4
							s-0.1,0.3-0.2,0.5h2.4v-0.1c0-0.2,0-0.3-0.1-0.4s-0.1-0.3-0.2-0.4s-0.2-0.2-0.4-0.2S229.9,93.3,229.7,93.3z M236.1,96.3
							l0.1,0.4l0.1-0.4l1.3-4.1h1.6L237,98h-1.4l-2.2-5.8h1.6L236.1,96.3z M240,95c0-0.4,0.1-0.8,0.2-1.2s0.3-0.7,0.5-0.9
							s0.5-0.5,0.9-0.6s0.7-0.2,1.2-0.2c0.4,0,0.8,0.1,1.2,0.2s0.6,0.4,0.9,0.6s0.4,0.6,0.5,0.9s0.2,0.8,0.2,1.2v0.1
							c0,0.4-0.1,0.8-0.2,1.2s-0.3,0.7-0.5,0.9s-0.5,0.5-0.9,0.6s-0.7,0.2-1.2,0.2c-0.4,0-0.8-0.1-1.2-0.2s-0.6-0.4-0.9-0.6
							s-0.4-0.6-0.5-0.9S240,95.5,240,95L240,95z M241.5,95.2c0,0.2,0,0.5,0.1,0.7s0.1,0.4,0.2,0.6s0.2,0.3,0.4,0.4s0.4,0.1,0.6,0.1
							c0.2,0,0.4,0,0.6-0.1s0.3-0.2,0.4-0.4s0.2-0.3,0.2-0.6s0.1-0.4,0.1-0.7V95c0-0.2,0-0.5-0.1-0.7s-0.1-0.4-0.2-0.6
							s-0.2-0.3-0.4-0.4s-0.3-0.1-0.6-0.1c-0.2,0-0.4,0-0.6,0.1s-0.3,0.2-0.4,0.4s-0.2,0.3-0.2,0.6s-0.1,0.4-0.1,0.7V95.2z
							 M250.6,96.4c0-0.1,0-0.2-0.1-0.2s-0.1-0.1-0.2-0.2s-0.2-0.1-0.4-0.2s-0.4-0.1-0.7-0.2s-0.7-0.2-0.9-0.3s-0.5-0.2-0.7-0.4
							s-0.4-0.3-0.5-0.5s-0.2-0.4-0.2-0.7c0-0.2,0.1-0.5,0.2-0.7s0.3-0.4,0.5-0.6s0.5-0.3,0.8-0.4s0.7-0.1,1-0.1
							c0.4,0,0.8,0,1.1,0.1s0.6,0.2,0.8,0.4s0.4,0.4,0.5,0.6s0.2,0.5,0.2,0.7h-1.5c0-0.2-0.1-0.4-0.3-0.6s-0.5-0.2-0.8-0.2
							s-0.6,0.1-0.8,0.2s-0.3,0.3-0.3,0.5c0,0.1,0,0.2,0.1,0.2s0.1,0.1,0.2,0.2s0.2,0.1,0.4,0.2s0.4,0.1,0.6,0.1
							c0.4,0.1,0.7,0.1,1,0.2s0.6,0.2,0.8,0.3s0.4,0.3,0.5,0.5s0.2,0.4,0.2,0.7c0,0.3-0.1,0.5-0.2,0.7s-0.3,0.4-0.5,0.6
							s-0.5,0.3-0.8,0.4s-0.7,0.1-1.1,0.1c-0.4,0-0.8-0.1-1.2-0.2s-0.6-0.3-0.8-0.4s-0.4-0.4-0.5-0.6s-0.2-0.5-0.2-0.7h1.4
							c0,0.2,0.1,0.3,0.1,0.4s0.2,0.2,0.3,0.3s0.3,0.1,0.4,0.2s0.3,0,0.5,0c0.4,0,0.6-0.1,0.8-0.2S250.6,96.6,250.6,96.4z
							 M261.9,90.2l0.7,2.9l0.8-2.9h1.9V98h-1.4v-2.3L264,92l-1,3.4h-0.7l-0.9-3.2l0.1,3.5V98H260v-7.8H261.9z M267.1,92.2h3.2v4.6
							h1.6V98h-4.7v-1.2h1.7v-3.4h-1.7v-1.2H267.1z M268.6,90.7c0-0.1,0-0.2,0.1-0.3s0.1-0.2,0.2-0.3c0.1-0.1,0.2-0.1,0.3-0.2
							s0.2-0.1,0.4-0.1c0.3,0,0.5,0.1,0.6,0.2s0.2,0.3,0.2,0.6s-0.1,0.4-0.2,0.6s-0.4,0.2-0.6,0.2c-0.1,0-0.2,0-0.4-0.1
							s-0.2-0.1-0.3-0.2c-0.1-0.1-0.1-0.2-0.2-0.3S268.6,90.8,268.6,90.7z M274.6,92.2l0.1,0.8c0.2-0.3,0.5-0.5,0.8-0.7
							c0.3-0.2,0.6-0.2,1-0.2c0.3,0,0.6,0,0.8,0.1s0.5,0.2,0.6,0.4s0.3,0.4,0.4,0.7s0.1,0.7,0.1,1.1V98H277v-3.6
							c0-0.2,0-0.4-0.1-0.6s-0.1-0.3-0.2-0.4c-0.1-0.1-0.2-0.1-0.3-0.2s-0.3-0.1-0.5-0.1c-0.3,0-0.5,0.1-0.6,0.2s-0.3,0.2-0.4,0.4
							V98h-1.5v-5.8H274.6z M280.3,92.2h3.2v4.6h1.6V98h-4.7v-1.2h1.7v-3.4h-1.7v-1.2H280.3z M281.8,90.7c0-0.1,0-0.2,0.1-0.3
							c0.1-0.1,0.1-0.2,0.2-0.3s0.2-0.1,0.3-0.2s0.2-0.1,0.4-0.1c0.3,0,0.5,0.1,0.6,0.2s0.2,0.3,0.2,0.6s-0.1,0.4-0.2,0.6
							s-0.4,0.2-0.6,0.2c-0.1,0-0.2,0-0.4-0.1s-0.2-0.1-0.3-0.2s-0.1-0.2-0.2-0.3C281.8,90.7,281.8,90.8,281.8,90.7z M290.2,96.4
							c0-0.1,0-0.2-0.1-0.2S290,96,289.9,96s-0.2-0.1-0.4-0.2s-0.4-0.1-0.7-0.2c-0.3-0.1-0.7-0.2-0.9-0.3s-0.5-0.2-0.7-0.4
							s-0.4-0.3-0.5-0.5s-0.2-0.4-0.2-0.7c0-0.2,0.1-0.5,0.2-0.7s0.3-0.4,0.5-0.6s0.5-0.3,0.8-0.4s0.7-0.1,1-0.1
							c0.4,0,0.8,0,1.1,0.1s0.6,0.2,0.8,0.4s0.4,0.4,0.5,0.6s0.2,0.5,0.2,0.7h-1.5c0-0.2-0.1-0.4-0.3-0.6s-0.5-0.2-0.8-0.2
							s-0.6,0.1-0.8,0.2s-0.3,0.3-0.3,0.5c0,0.1,0,0.2,0.1,0.2s0.1,0.1,0.2,0.2s0.2,0.1,0.4,0.2s0.4,0.1,0.6,0.1
							c0.4,0.1,0.7,0.1,1,0.2s0.6,0.2,0.8,0.3s0.4,0.3,0.5,0.5s0.2,0.4,0.2,0.7c0,0.3-0.1,0.5-0.2,0.7s-0.3,0.4-0.5,0.6
							s-0.5,0.3-0.8,0.4s-0.7,0.1-1.1,0.1s-0.8-0.1-1.2-0.2s-0.6-0.3-0.8-0.4s-0.4-0.4-0.5-0.6s-0.2-0.5-0.2-0.7h1.4
							c0,0.2,0.1,0.3,0.1,0.4s0.2,0.2,0.3,0.3s0.3,0.1,0.4,0.2s0.3,0,0.5,0c0.4,0,0.6-0.1,0.8-0.2S290.2,96.6,290.2,96.4z
							 M295.8,90.8v1.4h2.2v1.1h-2.2v2.5c0,0.2,0,0.4,0.1,0.5s0.1,0.3,0.2,0.3s0.2,0.1,0.3,0.2s0.3,0.1,0.4,0.1s0.2,0,0.4,0
							s0.2,0,0.3,0s0.2,0,0.3-0.1s0.2,0,0.2-0.1l0.1,1c-0.1,0.1-0.2,0.1-0.4,0.2s-0.3,0.1-0.4,0.1s-0.3,0.1-0.5,0.1s-0.3,0-0.5,0
							c-0.3,0-0.6,0-0.9-0.1s-0.5-0.2-0.7-0.4s-0.3-0.4-0.4-0.7s-0.2-0.6-0.2-1v-2.6H293v-1.1h1.3v-1.4H295.8z M302.5,98.1
							c-0.4,0-0.9-0.1-1.2-0.2s-0.7-0.3-0.9-0.6s-0.5-0.5-0.6-0.9s-0.2-0.7-0.2-1.1v-0.2c0-0.4,0.1-0.8,0.2-1.2s0.3-0.7,0.6-0.9
							s0.5-0.5,0.9-0.6s0.7-0.2,1.1-0.2s0.8,0.1,1.1,0.2s0.6,0.3,0.8,0.6c0.2,0.3,0.4,0.6,0.5,0.9s0.2,0.7,0.2,1.2v0.6h-4
							c0,0.2,0.1,0.4,0.2,0.5s0.2,0.3,0.3,0.4s0.3,0.2,0.5,0.3s0.4,0.1,0.6,0.1c0.1,0,0.3,0,0.4,0s0.3-0.1,0.4-0.1s0.3-0.1,0.4-0.2
							s0.2-0.2,0.3-0.3l0.7,0.8c-0.1,0.1-0.2,0.3-0.4,0.4s-0.3,0.2-0.5,0.3s-0.4,0.2-0.7,0.2S302.8,98.1,302.5,98.1z M302.3,93.3
							c-0.2,0-0.3,0-0.5,0.1s-0.3,0.1-0.4,0.3s-0.2,0.2-0.3,0.4s-0.1,0.3-0.2,0.5h2.4v-0.1c0-0.2,0-0.3-0.1-0.4s-0.1-0.3-0.2-0.4
							s-0.2-0.2-0.4-0.2S302.5,93.3,302.3,93.3z M310.4,92.1c0.2,0,0.4,0,0.6,0s0.3,0.1,0.5,0.1l-0.2,1.5c-0.2,0-0.4-0.1-0.6-0.1
							s-0.4,0-0.6,0c-0.4,0-0.8,0.1-1,0.2s-0.4,0.4-0.6,0.7V98H307v-5.8h1.4l0.1,1c0.2-0.3,0.5-0.6,0.8-0.8S310,92.1,310.4,92.1z
							 M313.3,92.2h3.2v4.6h1.6V98h-4.7v-1.2h1.7v-3.4h-1.7v-1.2H313.3z M314.8,90.7c0-0.1,0-0.2,0.1-0.3s0.1-0.2,0.2-0.3
							s0.2-0.1,0.3-0.2s0.2-0.1,0.4-0.1c0.3,0,0.5,0.1,0.6,0.2s0.2,0.3,0.2,0.6s-0.1,0.4-0.2,0.6s-0.4,0.2-0.6,0.2
							c-0.1,0-0.2,0-0.4-0.1s-0.2-0.1-0.3-0.2s-0.1-0.2-0.2-0.3S314.8,90.8,314.8,90.7z M319.3,95c0-0.4,0.1-0.8,0.2-1.2
							s0.3-0.7,0.5-0.9s0.5-0.5,0.9-0.6s0.7-0.2,1.2-0.2s0.8,0.1,1.2,0.2s0.6,0.4,0.9,0.6s0.4,0.6,0.5,0.9s0.2,0.8,0.2,1.2v0.1
							c0,0.4-0.1,0.8-0.2,1.2s-0.3,0.7-0.5,0.9s-0.5,0.5-0.9,0.6s-0.7,0.2-1.2,0.2c-0.4,0-0.8-0.1-1.2-0.2s-0.6-0.4-0.9-0.6
							s-0.4-0.6-0.5-0.9S319.3,95.5,319.3,95L319.3,95z M320.8,95.2c0,0.2,0,0.5,0.1,0.7s0.1,0.4,0.2,0.6s0.2,0.3,0.4,0.4
							s0.4,0.1,0.6,0.1s0.4,0,0.6-0.1s0.3-0.2,0.4-0.4s0.2-0.3,0.2-0.6s0.1-0.4,0.1-0.7V95c0-0.2,0-0.5-0.1-0.7s-0.1-0.4-0.2-0.6
							s-0.2-0.3-0.4-0.4s-0.3-0.1-0.6-0.1c-0.2,0-0.4,0-0.6,0.1s-0.3,0.2-0.4,0.4s-0.2,0.3-0.2,0.6s-0.1,0.4-0.1,0.7V95.2z
							 M329.8,96.4c0-0.1,0-0.2-0.1-0.2s-0.1-0.1-0.2-0.2s-0.2-0.1-0.4-0.2s-0.4-0.1-0.7-0.2c-0.3-0.1-0.7-0.2-0.9-0.3
							s-0.5-0.2-0.7-0.4s-0.4-0.3-0.5-0.5s-0.2-0.4-0.2-0.7c0-0.2,0.1-0.5,0.2-0.7s0.3-0.4,0.5-0.6s0.5-0.3,0.8-0.4s0.7-0.1,1-0.1
							c0.4,0,0.8,0,1.1,0.1s0.6,0.2,0.8,0.4s0.4,0.4,0.5,0.6s0.2,0.5,0.2,0.7h-1.5c0-0.2-0.1-0.4-0.3-0.6s-0.5-0.2-0.8-0.2
							s-0.6,0.1-0.8,0.2s-0.3,0.3-0.3,0.5c0,0.1,0,0.2,0.1,0.2s0.1,0.1,0.2,0.2s0.2,0.1,0.4,0.2s0.4,0.1,0.6,0.1
							c0.4,0.1,0.7,0.1,1,0.2s0.6,0.2,0.8,0.3s0.4,0.3,0.5,0.5s0.2,0.4,0.2,0.7c0,0.3-0.1,0.5-0.2,0.7s-0.3,0.4-0.5,0.6
							s-0.5,0.3-0.8,0.4s-0.7,0.1-1.1,0.1s-0.8-0.1-1.2-0.2s-0.6-0.3-0.8-0.4s-0.4-0.4-0.5-0.6s-0.2-0.5-0.2-0.7h1.4
							c0,0.2,0.1,0.3,0.1,0.4s0.2,0.2,0.3,0.3s0.3,0.1,0.4,0.2s0.3,0,0.5,0c0.4,0,0.6-0.1,0.8-0.2S329.8,96.6,329.8,96.4z"/>
						<path id="Rectangle-4_11_" class="st13" d="M368.5,82.5h119c1.7,0,3,1.3,3,3v18c0,1.7-1.3,3-3,3h-119c-1.7,0-3-1.3-3-3v-18
							C365.5,83.8,366.8,82.5,368.5,82.5z"/>
						<path id="Nuevos-Ministerios_11_" class="st14" d="M384.8,90.2l0.7,2.9l0.8-2.9h1.9V98h-1.4v-2.3l0.1-3.7l-1,3.4h-0.7
							l-0.9-3.2l0.1,3.5V98H383v-7.8H384.8z M393.2,98c0-0.1-0.1-0.2-0.1-0.2c0-0.1,0-0.2-0.1-0.3c-0.1,0.1-0.2,0.2-0.3,0.3
							c-0.1,0.1-0.2,0.1-0.4,0.2c-0.1,0.1-0.3,0.1-0.4,0.1c-0.2,0-0.3,0.1-0.5,0.1c-0.3,0-0.6,0-0.8-0.1c-0.2-0.1-0.5-0.2-0.6-0.4
							c-0.2-0.2-0.3-0.3-0.4-0.6c-0.1-0.2-0.2-0.4-0.2-0.7c0-0.6,0.2-1.1,0.7-1.4s1.1-0.5,2-0.5h0.8v-0.3c0-0.3-0.1-0.5-0.3-0.7
							c-0.2-0.2-0.4-0.2-0.8-0.2c-0.3,0-0.5,0.1-0.7,0.2s-0.2,0.3-0.2,0.5h-1.5c0-0.2,0.1-0.5,0.2-0.7s0.3-0.4,0.5-0.6
							s0.5-0.3,0.8-0.4s0.6-0.1,1-0.1s0.7,0,1,0.1s0.6,0.2,0.8,0.4c0.2,0.2,0.4,0.4,0.5,0.6c0.1,0.3,0.2,0.6,0.2,0.9v2.5
							c0,0.3,0,0.6,0.1,0.8c0,0.2,0.1,0.4,0.2,0.5v0H393.2z M391.8,97c0.2,0,0.3,0,0.4-0.1s0.2-0.1,0.3-0.1c0.1-0.1,0.2-0.1,0.3-0.2
							s0.1-0.1,0.2-0.2v-1h-0.8c-0.2,0-0.4,0-0.6,0.1c-0.2,0-0.3,0.1-0.4,0.2S391,95.9,391,96c-0.1,0.1-0.1,0.2-0.1,0.4
							c0,0.2,0.1,0.4,0.2,0.5C391.3,96.9,391.5,97,391.8,97z M400.3,92.1c0.2,0,0.4,0,0.6,0s0.3,0.1,0.5,0.1l-0.2,1.5
							c-0.2,0-0.4-0.1-0.6-0.1s-0.4,0-0.6,0c-0.4,0-0.8,0.1-1,0.2c-0.3,0.2-0.4,0.4-0.6,0.7V98H397v-5.8h1.4l0.1,1
							c0.2-0.3,0.5-0.6,0.8-0.8C399.6,92.2,399.9,92.1,400.3,92.1z M409.2,95.1c0-0.4,0.1-0.8,0.2-1.2s0.3-0.7,0.4-0.9
							c0.2-0.3,0.4-0.5,0.7-0.6c0.3-0.1,0.6-0.2,1-0.2c0.3,0,0.6,0.1,0.8,0.2c0.2,0.1,0.4,0.3,0.6,0.5v-3h1.5V98h-1.3l-0.1-0.6
							c-0.2,0.2-0.4,0.4-0.6,0.5s-0.5,0.2-0.9,0.2s-0.7-0.1-1-0.2s-0.5-0.4-0.7-0.6c-0.2-0.3-0.3-0.6-0.4-0.9
							c-0.1-0.4-0.2-0.8-0.2-1.2V95.1z M410.7,95.2c0,0.2,0,0.5,0.1,0.7c0,0.2,0.1,0.4,0.2,0.5c0.1,0.2,0.2,0.3,0.4,0.4
							c0.1,0.1,0.3,0.1,0.5,0.1c0.3,0,0.5-0.1,0.6-0.2c0.2-0.1,0.3-0.3,0.4-0.5v-2.4c-0.1-0.2-0.2-0.4-0.4-0.5
							c-0.2-0.1-0.4-0.2-0.6-0.2s-0.4,0-0.5,0.1s-0.3,0.2-0.4,0.4c-0.1,0.2-0.2,0.3-0.2,0.6s-0.1,0.4-0.1,0.7V95.2z M418.8,98.1
							c-0.4,0-0.9-0.1-1.2-0.2c-0.4-0.1-0.7-0.3-0.9-0.6c-0.3-0.3-0.5-0.5-0.6-0.9c-0.1-0.3-0.2-0.7-0.2-1.1v-0.2
							c0-0.4,0.1-0.8,0.2-1.2c0.1-0.4,0.3-0.7,0.6-0.9c0.3-0.3,0.5-0.5,0.9-0.6c0.3-0.1,0.7-0.2,1.1-0.2s0.8,0.1,1.1,0.2
							c0.3,0.1,0.6,0.3,0.8,0.6c0.2,0.3,0.4,0.6,0.5,0.9c0.1,0.4,0.2,0.7,0.2,1.2v0.6h-3.9c0,0.2,0.1,0.4,0.2,0.5
							c0.1,0.2,0.2,0.3,0.3,0.4c0.1,0.1,0.3,0.2,0.5,0.3c0.2,0.1,0.4,0.1,0.6,0.1c0.1,0,0.3,0,0.4,0s0.3-0.1,0.4-0.1
							c0.1-0.1,0.3-0.1,0.4-0.2s0.2-0.2,0.3-0.3l0.7,0.8c-0.1,0.1-0.2,0.3-0.4,0.4c-0.1,0.1-0.3,0.2-0.5,0.3
							c-0.2,0.1-0.4,0.2-0.7,0.2C419.3,98.1,419.1,98.1,418.8,98.1z M418.6,93.3c-0.2,0-0.3,0-0.5,0.1c-0.1,0.1-0.3,0.1-0.4,0.3
							c-0.1,0.1-0.2,0.2-0.3,0.4c-0.1,0.2-0.1,0.3-0.2,0.5h2.4v-0.1c0-0.2,0-0.3-0.1-0.4s-0.1-0.3-0.2-0.4s-0.2-0.2-0.4-0.2
							S418.8,93.3,418.6,93.3z M434.5,95.6c0,0.4-0.1,0.7-0.3,1.1s-0.3,0.6-0.6,0.8c-0.2,0.2-0.5,0.4-0.9,0.5
							c-0.3,0.1-0.7,0.2-1.1,0.2c-0.5,0-0.9-0.1-1.2-0.3c-0.4-0.2-0.7-0.4-0.9-0.7c-0.2-0.3-0.4-0.7-0.6-1.1s-0.2-0.9-0.2-1.4v-1.1
							c0-0.5,0.1-1,0.2-1.4s0.3-0.8,0.6-1.1c0.3-0.3,0.6-0.5,0.9-0.7c0.4-0.2,0.8-0.3,1.2-0.3c0.4,0,0.8,0.1,1.1,0.2
							c0.3,0.1,0.6,0.3,0.9,0.5c0.2,0.2,0.4,0.5,0.6,0.8c0.1,0.3,0.2,0.7,0.3,1.1H433c0-0.2,0-0.4-0.1-0.6s-0.1-0.3-0.2-0.4
							s-0.2-0.2-0.4-0.3c-0.2-0.1-0.4-0.1-0.6-0.1s-0.4,0.1-0.6,0.2s-0.3,0.2-0.4,0.4c-0.1,0.2-0.2,0.4-0.2,0.7s-0.1,0.6-0.1,1v1.1
							c0,0.8,0.1,1.3,0.3,1.7c0.2,0.4,0.6,0.6,1,0.6s0.7-0.1,0.9-0.3c0.2-0.2,0.4-0.5,0.4-1L434.5,95.6L434.5,95.6z M439.9,92.1
							c0.2,0,0.4,0,0.6,0s0.3,0.1,0.5,0.1l-0.2,1.5c-0.2,0-0.4-0.1-0.6-0.1s-0.4,0-0.6,0c-0.4,0-0.8,0.1-1,0.2
							c-0.3,0.2-0.4,0.4-0.6,0.7V98h-1.5v-5.8h1.4l0.1,1c0.2-0.3,0.5-0.6,0.8-0.8C439.2,92.2,439.6,92.1,439.9,92.1z M442.8,92.2
							h3.2v4.6h1.6V98h-4.7v-1.2h1.7v-3.4h-1.7v-1.2H442.8z M444.3,90.7c0-0.1,0-0.2,0.1-0.3c0-0.1,0.1-0.2,0.2-0.3s0.2-0.1,0.3-0.2
							c0.1,0,0.2-0.1,0.4-0.1c0.3,0,0.5,0.1,0.6,0.2s0.2,0.3,0.2,0.6s-0.1,0.4-0.2,0.6s-0.4,0.2-0.6,0.2c-0.1,0-0.2,0-0.4-0.1
							c-0.1,0-0.2-0.1-0.3-0.2s-0.1-0.2-0.2-0.3C444.3,90.9,444.3,90.8,444.3,90.7z M452.7,96.4c0-0.1,0-0.2-0.1-0.2
							c0-0.1-0.1-0.1-0.2-0.2s-0.2-0.1-0.4-0.2c-0.2-0.1-0.4-0.1-0.7-0.2c-0.3-0.1-0.7-0.2-0.9-0.3c-0.3-0.1-0.5-0.2-0.7-0.4
							c-0.2-0.1-0.4-0.3-0.5-0.5S449,94,449,93.7c0-0.2,0.1-0.5,0.2-0.7s0.3-0.4,0.5-0.6s0.5-0.3,0.8-0.4s0.7-0.1,1-0.1
							c0.4,0,0.8,0,1.1,0.1c0.3,0.1,0.6,0.2,0.8,0.4c0.2,0.2,0.4,0.4,0.5,0.6s0.2,0.5,0.2,0.7h-1.5c0-0.2-0.1-0.4-0.3-0.6
							s-0.5-0.2-0.8-0.2s-0.6,0.1-0.8,0.2s-0.3,0.3-0.3,0.5c0,0.1,0,0.2,0.1,0.2c0,0.1,0.1,0.1,0.2,0.2s0.2,0.1,0.4,0.2
							c0.2,0,0.4,0.1,0.6,0.1c0.4,0.1,0.7,0.1,1,0.2s0.6,0.2,0.8,0.3c0.2,0.1,0.4,0.3,0.5,0.5s0.2,0.4,0.2,0.7
							c0,0.3-0.1,0.5-0.2,0.7s-0.3,0.4-0.5,0.6s-0.5,0.3-0.8,0.4s-0.7,0.1-1.1,0.1s-0.8-0.1-1.2-0.2c-0.3-0.1-0.6-0.3-0.8-0.4
							c-0.2-0.2-0.4-0.4-0.5-0.6s-0.2-0.5-0.2-0.7h1.4c0,0.2,0.1,0.3,0.1,0.4c0.1,0.1,0.2,0.2,0.3,0.3c0.1,0.1,0.3,0.1,0.4,0.2
							c0.2,0,0.3,0,0.5,0c0.4,0,0.6-0.1,0.8-0.2S452.7,96.6,452.7,96.4z M458.3,90.8v1.4h2.2v1.1h-2.2v2.5c0,0.2,0,0.4,0.1,0.5
							s0.1,0.3,0.2,0.3c0.1,0.1,0.2,0.1,0.3,0.2c0.1,0,0.3,0.1,0.4,0.1s0.2,0,0.4,0c0.1,0,0.2,0,0.3,0c0.1,0,0.2,0,0.3-0.1
							c0.1,0,0.2,0,0.2-0.1l0.1,1c-0.1,0.1-0.2,0.1-0.4,0.2c-0.1,0-0.3,0.1-0.4,0.1c-0.2,0-0.3,0.1-0.5,0.1s-0.3,0-0.5,0
							c-0.3,0-0.6,0-0.9-0.1s-0.5-0.2-0.7-0.4c-0.2-0.2-0.3-0.4-0.4-0.7c-0.1-0.3-0.2-0.6-0.2-1v-2.6h-1.3v-1.1h1.3v-1.4H458.3z
							 M465.8,98c0-0.1-0.1-0.2-0.1-0.2c0-0.1,0-0.2-0.1-0.3c-0.1,0.1-0.2,0.2-0.3,0.3s-0.2,0.1-0.4,0.2c-0.1,0.1-0.3,0.1-0.4,0.1
							c-0.2,0-0.3,0.1-0.5,0.1c-0.3,0-0.6,0-0.8-0.1c-0.2-0.1-0.5-0.2-0.6-0.4c-0.2-0.2-0.3-0.3-0.4-0.6c-0.1-0.2-0.2-0.4-0.2-0.7
							c0-0.6,0.2-1.1,0.7-1.4s1.1-0.5,2-0.5h0.8v-0.3c0-0.3-0.1-0.5-0.3-0.7c-0.2-0.2-0.4-0.2-0.8-0.2c-0.3,0-0.5,0.1-0.7,0.2
							c-0.1,0.1-0.2,0.3-0.2,0.5H462c0-0.2,0.1-0.5,0.2-0.7s0.3-0.4,0.5-0.6s0.5-0.3,0.8-0.4s0.6-0.1,1-0.1s0.7,0,1,0.1
							s0.6,0.2,0.8,0.4c0.2,0.2,0.4,0.4,0.5,0.6c0.1,0.3,0.2,0.6,0.2,0.9v2.5c0,0.3,0,0.6,0.1,0.8c0,0.2,0.1,0.4,0.2,0.5v0H465.8z
							 M464.4,97c0.2,0,0.3,0,0.4-0.1c0.1,0,0.2-0.1,0.3-0.1c0.1-0.1,0.2-0.1,0.3-0.2s0.1-0.1,0.2-0.2v-1h-0.8c-0.2,0-0.4,0-0.6,0.1
							c-0.2,0-0.3,0.1-0.4,0.2s-0.2,0.2-0.2,0.3c-0.1,0.1-0.1,0.2-0.1,0.4c0,0.2,0.1,0.4,0.2,0.5C463.9,96.9,464.1,97,464.4,97z
							 M469.1,89.7h3.2v7h1.7V98h-4.9v-1.2h1.7V91h-1.7L469.1,89.7L469.1,89.7z"/>
					</g>
					<g id="Page-1" transform="translate(349.000000, 104.000000)">
						<path id="Fill-1" class="st15" d="M4.9,10.7c0-0.6,0.4-1,1-1s1,0.4,1,1s-0.4,1-1,1C5.4,11.7,4.9,11.2,4.9,10.7"/>
						<path id="Fill-3" class="st15" d="M8.8,10.7c0-0.6,0.4-1,1-1s1,0.4,1,1s-0.4,1-1,1S8.8,11.2,8.8,10.7"/>
						<path id="Fill-5" class="st15" d="M17.5,10.7c0-0.6,0.4-1,1-1s1,0.4,1,1s-0.4,1-1,1S17.5,11.2,17.5,10.7"/>
						<path id="Fill-7" class="st15" d="M21.3,10.7c0-0.6,0.4-1,1-1s1,0.4,1,1s-0.4,1-1,1C21.8,11.7,21.3,11.2,21.3,10.7"/>
						<g id="Group-11">
							<g id="Clip-10">
							</g>
							<path id="Fill-9" class="st16" d="M28.4,7.9v9.6H0V7.9C0,3.5,3.5,0,7.9,0c2,0,3.8,0.8,5.2,2l1.1,1l1.1-1c1.4-1.2,3.2-2,5.2-2
								C24.9,0,28.4,3.5,28.4,7.9z M25.4,7.9c0-2.7-2.2-4.8-4.8-4.8c-2.7,0-4.8,2.2-4.8,4.8v6.5h9.7L25.4,7.9L25.4,7.9z M12.7,7.9
								c0-2.7-2.2-4.8-4.8-4.8C5.2,3,3,5.2,3,7.9v6.5h9.7V7.9z"/>
						</g>
						<path id="Fill-12" class="st16" d="M37.2,15.9H40c1.3,0,2.2-0.2,2.7-0.7s0.7-1.1,0.7-1.7c0-0.5-0.2-1-0.5-1.5
							c-0.3-0.4-0.8-0.8-1.4-1.1c-0.6-0.3-1.6-0.4-2.8-0.4h-1.4L37.2,15.9L37.2,15.9z M37.2,9h1.9c1,0,1.7-0.1,2.2-0.4
							c0.5-0.3,0.9-0.6,1.1-1.1c0.3-0.5,0.4-1,0.4-1.5c0-0.6-0.2-1-0.7-1.4C41.7,4.2,40.9,4,39.8,4h-2.5L37.2,9L37.2,9z M42,9.6
							c1.2,0.3,2,0.8,2.6,1.5c0.5,0.7,0.8,1.5,0.8,2.3c0,0.7-0.2,1.4-0.6,2c-0.4,0.6-0.9,1.1-1.6,1.5c-0.7,0.4-1.8,0.6-3.5,0.6h-4.5
							v-15h4c1.8,0,3,0.1,3.6,0.4C43.5,3.1,44,3.5,44.3,4s0.5,1.1,0.5,1.7c0,0.7-0.2,1.4-0.6,2.1C43.8,8.4,43.1,9,42,9.6z"/>
						<g id="Clip-15">
						</g>
						<path id="Fill-14" class="st16" d="M47.3,4.3h1.8V2.5h-1.8V4.3z M47.3,17.4h1.8V6.7h-1.8V17.4z"/>
						<path id="Fill-16" class="st16" d="M53.3,12.1c0,1.2,0.3,2.2,0.8,3s1.3,1.2,2.2,1.2s1.6-0.3,2.2-1c0.6-0.7,0.9-1.7,0.9-3.1
							c0-1.6-0.3-2.7-0.9-3.4c-0.6-0.6-1.3-0.9-2.1-0.9c-0.6,0-1.1,0.2-1.6,0.5s-0.9,0.9-1.1,1.5C53.4,10.5,53.3,11.3,53.3,12.1
							 M53.2,17.4h-1.8c0-0.4,0.1-0.8,0.1-1.3s0-0.9,0.1-1.2c0-0.3,0-0.5,0-0.6V1.9h1.8v6.7c0.4-0.6,0.8-1.1,1.1-1.3
							c0.3-0.3,0.7-0.5,1.1-0.6c0.4-0.1,0.8-0.2,1.3-0.2c0.8,0,1.6,0.2,2.2,0.7c0.7,0.4,1.2,1.1,1.6,2c0.4,0.9,0.6,1.9,0.6,3
							c0,1.6-0.4,3-1.2,4.1s-1.9,1.6-3.3,1.6c-0.5,0-0.9-0.1-1.3-0.2c-0.4-0.1-0.8-0.3-1.1-0.6c-0.3-0.3-0.7-0.7-1-1.4l-0.1,0.8
							C53.2,16.8,53.2,17.1,53.2,17.4"/>
						<polygon id="Fill-17" class="st16" points="63.2,17.4 65,17.4 65,1.9 63.2,1.9 						"/>
						<path id="Fill-18" class="st16" d="M67.2,4.3H69V2.5h-1.8V4.3z M67.2,17.4H69V6.7h-1.8V17.4z"/>
						<path id="Fill-19_1_" class="st16" d="M75.8,16.2c1,0,1.7-0.4,2.3-1.1c0.6-0.8,0.9-1.8,0.9-3c0-1.3-0.3-2.3-0.9-3
							c-0.6-0.8-1.4-1.2-2.3-1.2c-1,0-1.8,0.4-2.3,1.2c-0.6,0.8-0.9,1.8-0.9,3c0,1.3,0.3,2.3,0.9,3C74.1,15.9,74.9,16.2,75.8,16.2
							 M75.8,17.7c-1.4,0-2.6-0.5-3.6-1.4c-1-1-1.5-2.4-1.5-4.3s0.5-3.3,1.5-4.2c1-1,2.2-1.4,3.6-1.4s2.6,0.5,3.6,1.4
							c1,1,1.5,2.4,1.5,4.2c0,1.9-0.5,3.3-1.5,4.3C78.4,17.3,77.2,17.7,75.8,17.7"/>
						<path id="Fill-20" class="st15" d="M84.5,17.7h-1.7V7.6h1.7v1.8c0.3-0.6,0.7-1,1-1.3c0.3-0.3,0.7-0.5,1-0.6
							c0.4-0.1,0.8-0.2,1.2-0.2c0.4,0,0.8,0.1,1.2,0.2c0.4,0.1,0.7,0.3,1,0.6s0.6,0.7,0.8,1.3c0.3-0.6,0.7-1,1-1.3
							c0.3-0.3,0.7-0.5,1-0.6c0.4-0.1,0.7-0.2,1.1-0.2c0.6,0,1.1,0.1,1.6,0.4s0.8,0.6,1.1,1.1c0.3,0.5,0.4,1.3,0.4,2.5v6.3h-1.7V12
							c0-1.2-0.1-1.9-0.2-2.3c-0.1-0.3-0.3-0.6-0.6-0.7c-0.2-0.2-0.6-0.3-0.9-0.3c-0.5,0-1,0.2-1.4,0.5s-0.8,0.7-1,1.2
							c-0.3,0.5-0.4,1.3-0.4,2.2v4.9H89v-5.6c0-1.2-0.1-1.9-0.2-2.3c-0.1-0.3-0.3-0.6-0.6-0.7c-0.3-0.2-0.6-0.3-0.9-0.3
							c-0.5,0-0.9,0.2-1.4,0.5c-0.4,0.3-0.8,0.8-1,1.3s-0.4,1.3-0.4,2.2V17.7"/>
						<path id="Fill-21" class="st15" d="M99.9,11.6h5.5v-0.2c0-0.5-0.1-0.9-0.3-1.4c-0.2-0.4-0.5-0.8-0.9-1s-0.9-0.3-1.4-0.3
							c-0.6,0-1.2,0.3-1.7,0.8C100.4,10,100.1,10.7,99.9,11.6z M106.9,15.1c0,0.5-0.2,1-0.5,1.5c-0.4,0.5-0.8,0.8-1.4,1.1
							c-0.6,0.2-1.3,0.4-2,0.4c-1.5,0-2.7-0.5-3.6-1.5c-0.8-1-1.2-2.3-1.2-3.8c0-1.6,0.4-2.8,1.3-3.9c0.9-1,2-1.5,3.4-1.5
							c0.8,0,1.5,0.2,2.1,0.5c0.6,0.3,1.1,0.9,1.5,1.6c0.4,0.7,0.5,1.7,0.5,2.9V13h-7.2c0,1.1,0.3,2,0.9,2.7s1.4,1,2.4,1
							c0.7,0,1.3-0.1,1.6-0.4c0.3-0.3,0.6-0.8,0.6-1h1.6V15.1z"/>
						<path id="Fill-22" class="st15" d="M113.1,17.8c-0.5,0.1-0.9,0.2-1.2,0.2c-0.6,0-1.2-0.1-1.7-0.4s-0.9-0.6-1.1-1.1
							c-0.3-0.5-0.4-1.3-0.4-2.3V9h-1.1V7.6h1.1V5.2h1.7v2.4h2.2V9h-2.2v4.7c0,0.9,0.1,1.5,0.2,1.9c0.1,0.3,0.4,0.6,0.7,0.8
							c0.3,0.2,0.7,0.2,1.1,0.2c0.2,0,0.5,0,0.8-0.1L113.1,17.8"/>
						<path id="Fill-23_1_" class="st15" d="M115.9,17.7h-1.7V7.6h1.7v1.8c0.3-0.5,0.6-0.9,0.9-1.2c0.3-0.3,0.7-0.5,1-0.6
							c0.4-0.2,0.8-0.2,1.2-0.2V9h-0.4c-0.6,0-1.2,0.3-1.8,0.8c-0.6,0.6-0.9,1.5-0.9,3L115.9,17.7"/>
						<path id="Fill-24" class="st15" d="M123.8,16.6c0.9,0,1.6-0.4,2.2-1.1c0.6-0.7,0.8-1.7,0.8-2.9s-0.3-2.1-0.8-2.8
							s-1.3-1.1-2.2-1.1c-0.9,0-1.6,0.4-2.2,1.1c-0.6,0.7-0.8,1.7-0.8,2.8c0,1.2,0.3,2.1,0.8,2.9C122.1,16.2,122.9,16.6,123.8,16.6
							 M123.8,18c-1.3,0-2.4-0.4-3.4-1.3c-0.9-0.9-1.4-2.2-1.4-4s0.5-3.1,1.4-4c0.9-0.9,2.1-1.3,3.4-1.3s2.4,0.4,3.4,1.3
							c0.9,0.9,1.4,2.2,1.4,4s-0.5,3.1-1.4,4C126.2,17.6,125.1,18,123.8,18"/>
					</g>
				</g>
			</g>
		</g>
	</g>
</g>
</svg>
